# Blender v2.93.5 OBJ File: ''
# www.blender.org
mtllib sleeve2.mtl
o 柱体_柱体.005
v 0.000000 -3.000000 -0.150000
v 0.029264 -3.000000 -0.147118
v 0.057403 -3.000000 -0.138582
v 0.083336 -3.000000 -0.124720
v 0.106066 -3.000000 -0.106066
v 0.124720 -3.000000 -0.083336
v 0.138582 -3.000000 -0.057403
v 0.147118 -3.000000 -0.029264
v 0.150000 -3.000000 0.000000
v 0.147118 -3.000000 0.029264
v 0.138582 -3.000000 0.057403
v 0.124720 -3.000000 0.083336
v 0.106066 -3.000000 0.106066
v 0.083336 -3.000000 0.124720
v 0.057403 -3.000000 0.138582
v 0.029264 -3.000000 0.147118
v -0.000000 -3.000000 0.150000
v -0.029264 -3.000000 0.147118
v -0.057403 -3.000000 0.138582
v -0.083336 -3.000000 0.124720
v -0.106066 -3.000000 0.106066
v -0.124720 -3.000000 0.083336
v -0.138582 -3.000000 0.057403
v -0.147118 -3.000000 0.029264
v -0.150000 -3.000000 -0.000000
v -0.147118 -3.000000 -0.029264
v -0.138582 -3.000000 -0.057403
v -0.124720 -3.000000 -0.083336
v -0.106066 -3.000000 -0.106066
v -0.083336 -3.000000 -0.124720
v -0.057403 -3.000000 -0.138582
v -0.029264 -3.000000 -0.147118
v -0.000000 -1.000000 -0.055414
v -0.000122 -1.778308 -0.129780
v 0.010811 -1.000000 -0.054350
v 0.024829 -1.791536 -0.125591
v 0.021206 -1.000000 -0.051196
v 0.049026 -1.788927 -0.118616
v 0.030787 -1.000000 -0.046075
v 0.071301 -1.790054 -0.106544
v 0.039184 -1.000000 -0.039184
v 0.091666 -1.780859 -0.091383
v 0.046075 -1.000000 -0.030787
v 0.109298 -1.766870 -0.072778
v 0.051196 -1.000000 -0.021206
v 0.122651 -1.756491 -0.050664
v 0.054350 -1.000000 -0.010811
v 0.130018 -1.757553 -0.025838
v 0.055414 -1.000000 0.000000
v 0.131421 -1.766042 -0.000040
v 0.054350 -1.000000 0.010811
v 0.127447 -1.777148 0.025302
v 0.051196 -1.000000 0.021206
v 0.118774 -1.787474 0.049182
v 0.046075 -1.000000 0.030787
v 0.106286 -1.792601 0.071086
v 0.039184 -1.000000 0.039184
v 0.090529 -1.790307 0.090735
v 0.030787 -1.000000 0.046076
v 0.071732 -1.781002 0.107722
v 0.021206 -1.000000 0.051196
v 0.050040 -1.767726 0.121282
v 0.010811 -1.000000 0.054350
v 0.025747 -1.758519 0.129906
v -0.000000 -1.000000 0.055414
v 0.000003 -1.755208 0.132872
v -0.010811 -1.000000 0.054350
v -0.025899 -1.754392 0.130429
v -0.021206 -1.000000 0.051196
v -0.050977 -1.751912 0.123172
v -0.030787 -1.000000 0.046075
v -0.074437 -1.746768 0.111409
v -0.039184 -1.000000 0.039184
v -0.095756 -1.736522 0.095669
v -0.046075 -1.000000 0.030787
v -0.113104 -1.732171 0.075418
v -0.051196 -1.000000 0.021206
v -0.124726 -1.739701 0.051496
v -0.054350 -1.000000 0.010811
v -0.130447 -1.754402 0.025807
v -0.055414 -1.000000 -0.000000
v -0.131409 -1.766126 -0.000130
v -0.054350 -1.000000 -0.010811
v -0.129533 -1.761051 -0.025869
v -0.051196 -1.000000 -0.021206
v -0.123968 -1.745348 -0.051368
v -0.046075 -1.000000 -0.030787
v -0.113031 -1.732464 -0.075467
v -0.039184 -1.000000 -0.039184
v -0.096157 -1.732420 -0.096055
v -0.030787 -1.000000 -0.046075
v -0.074682 -1.744797 -0.111575
v -0.021206 -1.000000 -0.051196
v -0.050925 -1.757195 -0.122441
v -0.010811 -1.000000 -0.054350
v -0.025925 -1.762733 -0.129279
vt 0.031250 0.500000
vt 0.031250 0.843117
vt 0.000000 0.843117
vt 0.000000 0.500000
vt 0.937500 0.500000
vt 0.937500 0.843117
vt 0.906250 0.843117
vt 0.906250 0.500000
vt 0.906250 0.843117
vt 0.875000 0.843117
vt 0.875000 0.500000
vt 0.843750 0.843117
vt 0.843750 0.500000
vt 0.812500 0.843117
vt 0.812500 0.500000
vt 0.781250 0.843117
vt 0.781250 0.500000
vt 0.750000 0.843117
vt 0.750000 0.500000
vt 0.718750 0.843117
vt 0.718750 0.500000
vt 0.687500 0.843117
vt 0.687500 0.500000
vt 0.656250 0.843117
vt 0.656250 0.500000
vt 0.625000 0.843117
vt 0.625000 0.500000
vt 0.593750 0.843117
vt 0.593750 0.500000
vt 0.562500 0.843117
vt 0.562500 0.500000
vt 0.531250 0.843117
vt 0.531250 0.500000
vt 0.500000 0.843117
vt 0.500000 0.500000
vt 0.468750 0.843117
vt 0.468750 0.500000
vt 0.437500 0.843117
vt 0.437500 0.500000
vt 0.406250 0.843117
vt 0.406250 0.500000
vt 0.375000 0.843117
vt 0.375000 0.500000
vt 0.343750 0.843117
vt 0.343750 0.500000
vt 0.312500 0.843117
vt 0.312500 0.500000
vt 0.281250 0.843117
vt 0.281250 0.500000
vt 0.250000 0.843117
vt 0.250000 0.500000
vt 0.218750 0.843117
vt 0.218750 0.500000
vt 0.187500 0.843117
vt 0.187500 0.500000
vt 0.156250 0.843117
vt 0.156250 0.500000
vt 0.125000 0.843117
vt 0.125000 0.500000
vt 0.093750 0.843117
vt 0.093750 0.500000
vt 0.062500 0.843117
vt 0.062500 0.500000
vt 1.000000 0.500000
vt 1.000000 0.843117
vt 0.968750 0.843117
vt 0.968750 0.500000
vt 0.750000 0.490000
vt 0.796822 0.485388
vt 0.841844 0.471731
vt 0.883337 0.449553
vt 0.919706 0.419706
vt 0.949553 0.383337
vt 0.971731 0.341844
vt 0.985388 0.296822
vt 0.990000 0.250000
vt 0.985388 0.203178
vt 0.971731 0.158156
vt 0.949553 0.116663
vt 0.919706 0.080294
vt 0.883337 0.050447
vt 0.841844 0.028269
vt 0.796822 0.014612
vt 0.750000 0.010000
vt 0.703178 0.014612
vt 0.658156 0.028269
vt 0.616663 0.050447
vt 0.580294 0.080294
vt 0.550447 0.116663
vt 0.528269 0.158156
vt 0.514612 0.203178
vt 0.510000 0.250000
vt 0.514612 0.296822
vt 0.528269 0.341844
vt 0.550447 0.383337
vt 0.580294 0.419706
vt 0.616663 0.449553
vt 0.658156 0.471731
vt 0.703178 0.485388
vt 0.990147 1.000000
vt 0.978603 1.000000
vt 0.958897 1.000000
vt 0.947353 1.000000
vt 0.927647 1.000000
vt 0.916103 1.000000
vt 0.896397 1.000000
vt 0.884853 1.000000
vt 0.865147 1.000000
vt 0.853603 1.000000
vt 0.833897 1.000000
vt 0.822353 1.000000
vt 0.802647 1.000000
vt 0.791103 1.000000
vt 0.771397 1.000000
vt 0.759853 1.000000
vt 0.740147 1.000000
vt 0.728603 1.000000
vt 0.708897 1.000000
vt 0.697353 1.000000
vt 0.677647 1.000000
vt 0.666103 1.000000
vt 0.646397 1.000000
vt 0.634853 1.000000
vt 0.615147 1.000000
vt 0.603603 1.000000
vt 0.583897 1.000000
vt 0.572353 1.000000
vt 0.552647 1.000000
vt 0.541103 1.000000
vt 0.521397 1.000000
vt 0.509853 1.000000
vt 0.490147 1.000000
vt 0.478603 1.000000
vt 0.458897 1.000000
vt 0.447353 1.000000
vt 0.427647 1.000000
vt 0.416103 1.000000
vt 0.396397 1.000000
vt 0.384853 1.000000
vt 0.365147 1.000000
vt 0.353603 1.000000
vt 0.333897 1.000000
vt 0.322353 1.000000
vt 0.302647 1.000000
vt 0.291103 1.000000
vt 0.271397 1.000000
vt 0.259853 1.000000
vt 0.240147 1.000000
vt 0.228603 1.000000
vt 0.208897 1.000000
vt 0.197353 1.000000
vt 0.177647 1.000000
vt 0.166103 1.000000
vt 0.146397 1.000000
vt 0.134853 1.000000
vt 0.115147 1.000000
vt 0.103603 1.000000
vt 0.083897 1.000000
vt 0.072353 1.000000
vt 0.052647 1.000000
vt 0.041103 1.000000
vt 0.021397 1.000000
vt 0.009853 1.000000
vt 0.267297 0.336959
vt 0.250000 0.338663
vt 0.232703 0.336960
vt 0.216070 0.331914
vt 0.200741 0.323721
vt 0.187306 0.312694
vt 0.176279 0.299259
vt 0.168086 0.283930
vt 0.163040 0.267297
vt 0.161337 0.250000
vt 0.163040 0.232703
vt 0.168086 0.216070
vt 0.176279 0.200741
vt 0.187306 0.187306
vt 0.200741 0.176279
vt 0.216070 0.168086
vt 0.232703 0.163040
vt 0.250000 0.161337
vt 0.267297 0.163040
vt 0.283930 0.168086
vt 0.299259 0.176279
vt 0.312694 0.187306
vt 0.323721 0.200741
vt 0.331914 0.216070
vt 0.336960 0.232703
vt 0.338663 0.250000
vt 0.336960 0.267297
vt 0.331914 0.283930
vt 0.323721 0.299259
vt 0.312694 0.312694
vt 0.299259 0.323721
vt 0.283930 0.331914
vn -0.0569 0.0155 -0.9983
vn 0.4740 0.0179 -0.8803
vn 0.6149 0.0174 -0.7884
vn 0.7487 0.0159 -0.6627
vn 0.8687 0.0145 -0.4952
vn 0.9577 0.0139 -0.2873
vn 0.9971 0.0145 -0.0754
vn 0.9917 0.0156 0.1277
vn 0.9482 0.0170 0.3171
vn 0.8750 0.0179 0.4839
vn 0.7767 0.0181 0.6297
vn 0.6534 0.0174 0.7568
vn 0.5023 0.0160 0.8646
vn 0.3133 0.0146 0.9495
vn 0.1065 0.0139 0.9942
vn -0.0959 0.0136 0.9953
vn -0.2839 0.0135 0.9588
vn -0.4594 0.0130 0.8881
vn -0.6136 0.0121 0.7895
vn -0.7660 0.0113 0.6428
vn -0.8911 0.0115 0.4537
vn -0.9674 0.0127 0.2528
vn -0.9977 0.0143 0.0664
vn -0.9963 0.0147 -0.0848
vn -0.9680 0.0134 -0.2506
vn -0.8971 0.0118 -0.4416
vn -0.7732 0.0111 -0.6341
vn -0.6095 0.0118 -0.7927
vn -0.4428 0.0132 -0.8965
vn -0.2765 0.0143 -0.9609
vn 0.1335 0.0173 -0.9909
vn 0.2833 0.0179 -0.9589
vn 0.0000 -1.0000 0.0000
vn 0.1781 0.0924 -0.9797
vn 0.2735 0.0912 -0.9575
vn 0.4755 0.0914 -0.8750
vn 0.5871 0.0924 -0.8042
vn 0.7117 0.0956 -0.6959
vn 0.8452 0.0994 -0.5252
vn 0.9541 0.1010 -0.2819
vn 0.9941 0.0994 -0.0440
vn 0.9813 0.0964 0.1664
vn 0.9322 0.0933 0.3498
vn 0.8627 0.0913 0.4974
vn 0.7784 0.0909 0.6212
vn 0.6746 0.0924 0.7323
vn 0.5400 0.0955 0.8362
vn 0.3434 0.0990 0.9340
vn 0.1181 0.1010 0.9879
vn -0.0924 0.1017 0.9905
vn -0.2735 0.1022 0.9564
vn -0.4398 0.1033 0.8921
vn -0.5792 0.1055 0.8083
vn -0.7508 0.1080 0.6517
vn -0.8988 0.1075 0.4250
vn -0.9748 0.1036 0.1975
vn -0.9947 0.0997 0.0231
vn -0.9929 0.0989 -0.0661
vn -0.9760 0.1016 -0.1926
vn -0.9127 0.1063 -0.3945
vn -0.7688 0.1087 -0.6302
vn -0.5681 0.1064 -0.8160
vn -0.3989 0.1025 -0.9113
vn -0.2558 0.1000 -0.9615
vn -0.0015 0.0964 -0.9953
vn 0.0000 1.0000 0.0000
usemtl None
s off
f 32/1/1 96/2/1 34/3/1 1/4/1
f 3/5/2 38/6/2 40/7/2 4/8/2
f 4/8/3 40/9/3 42/10/3 5/11/3
f 5/11/4 42/10/4 44/12/4 6/13/4
f 6/13/5 44/12/5 46/14/5 7/15/5
f 7/15/6 46/14/6 48/16/6 8/17/6
f 8/17/7 48/16/7 50/18/7 9/19/7
f 9/19/8 50/18/8 52/20/8 10/21/8
f 10/21/9 52/20/9 54/22/9 11/23/9
f 11/23/10 54/22/10 56/24/10 12/25/10
f 12/25/11 56/24/11 58/26/11 13/27/11
f 13/27/12 58/26/12 60/28/12 14/29/12
f 14/29/13 60/28/13 62/30/13 15/31/13
f 15/31/14 62/30/14 64/32/14 16/33/14
f 16/33/15 64/32/15 66/34/15 17/35/15
f 17/35/16 66/34/16 68/36/16 18/37/16
f 18/37/17 68/36/17 70/38/17 19/39/17
f 19/39/18 70/38/18 72/40/18 20/41/18
f 20/41/19 72/40/19 74/42/19 21/43/19
f 21/43/20 74/42/20 76/44/20 22/45/20
f 22/45/21 76/44/21 78/46/21 23/47/21
f 23/47/22 78/46/22 80/48/22 24/49/22
f 24/49/23 80/48/23 82/50/23 25/51/23
f 25/51/24 82/50/24 84/52/24 26/53/24
f 26/53/25 84/52/25 86/54/25 27/55/25
f 27/55/26 86/54/26 88/56/26 28/57/26
f 28/57/27 88/56/27 90/58/27 29/59/27
f 29/59/28 90/58/28 92/60/28 30/61/28
f 30/61/29 92/60/29 94/62/29 31/63/29
f 31/63/30 94/62/30 96/2/30 32/1/30
f 1/64/31 34/65/31 36/66/31 2/67/31
f 2/67/32 36/66/32 38/6/32 3/5/32
f 1/68/33 2/69/33 3/70/33 4/71/33 5/72/33 6/73/33 7/74/33 8/75/33 9/76/33 10/77/33 11/78/33 12/79/33 13/80/33 14/81/33 15/82/33 16/83/33 17/84/33 18/85/33 19/86/33 20/87/33 21/88/33 22/89/33 23/90/33 24/91/33 25/92/33 26/93/33 27/94/33 28/95/33 29/96/33 30/97/33 31/98/33 32/99/33
f 36/66/34 34/65/34 33/100/34 35/101/34
f 38/6/35 36/66/35 35/102/35 37/103/35
f 40/7/36 38/6/36 37/104/36 39/105/36
f 42/10/37 40/9/37 39/106/37 41/107/37
f 44/12/38 42/10/38 41/108/38 43/109/38
f 46/14/39 44/12/39 43/110/39 45/111/39
f 48/16/40 46/14/40 45/112/40 47/113/40
f 50/18/41 48/16/41 47/114/41 49/115/41
f 52/20/42 50/18/42 49/116/42 51/117/42
f 54/22/43 52/20/43 51/118/43 53/119/43
f 56/24/44 54/22/44 53/120/44 55/121/44
f 58/26/45 56/24/45 55/122/45 57/123/45
f 60/28/46 58/26/46 57/124/46 59/125/46
f 62/30/47 60/28/47 59/126/47 61/127/47
f 64/32/48 62/30/48 61/128/48 63/129/48
f 66/34/49 64/32/49 63/130/49 65/131/49
f 68/36/50 66/34/50 65/132/50 67/133/50
f 70/38/51 68/36/51 67/134/51 69/135/51
f 72/40/52 70/38/52 69/136/52 71/137/52
f 74/42/53 72/40/53 71/138/53 73/139/53
f 76/44/54 74/42/54 73/140/54 75/141/54
f 78/46/55 76/44/55 75/142/55 77/143/55
f 80/48/56 78/46/56 77/144/56 79/145/56
f 82/50/57 80/48/57 79/146/57 81/147/57
f 84/52/58 82/50/58 81/148/58 83/149/58
f 86/54/59 84/52/59 83/150/59 85/151/59
f 88/56/60 86/54/60 85/152/60 87/153/60
f 90/58/61 88/56/61 87/154/61 89/155/61
f 92/60/62 90/58/62 89/156/62 91/157/62
f 94/62/63 92/60/63 91/158/63 93/159/63
f 96/2/64 94/62/64 93/160/64 95/161/64
f 34/3/65 96/2/65 95/162/65 33/163/65
f 35/164/66 33/165/66 95/166/66 93/167/66 91/168/66 89/169/66 87/170/66 85/171/66 83/172/66 81/173/66 79/174/66 77/175/66 75/176/66 73/177/66 71/178/66 69/179/66 67/180/66 65/181/66 63/182/66 61/183/66 59/184/66 57/185/66 55/186/66 53/187/66 51/188/66 49/189/66 47/190/66 45/191/66 43/192/66 41/193/66 39/194/66 37/195/66
