# Blender 3.6.2
# www.blender.org
mtllib 100mm 2.mtl
o JP_127.001
v -0.993073 1.874826 -0.333254
v -0.993073 1.909316 -0.380718
v -0.993073 1.960123 -0.410054
v -0.993073 2.018471 -0.416186
v -0.993073 2.074272 -0.398056
v -0.993073 2.117872 -0.358798
v -0.993073 2.141735 -0.305200
v -0.993073 2.141735 -0.246530
v -0.993073 2.117872 -0.192933
v -0.993073 2.074272 -0.153675
v -0.993073 2.018471 -0.135545
v -0.993073 1.960123 -0.141677
v -0.993073 1.909316 -0.171012
v -0.993073 1.874826 -0.218478
v -0.993073 1.862630 -0.275866
v 3.454613 1.937059 -0.305212
v 3.454613 1.954693 -0.329483
v 3.454613 1.980675 -0.344484
v 3.454613 2.010512 -0.347620
v 3.454613 2.039045 -0.338349
v 3.454613 2.061340 -0.318273
v 3.454613 2.073542 -0.290866
v 3.454613 2.073542 -0.260864
v 3.454613 2.061340 -0.233457
v 3.454613 2.039045 -0.213382
v 3.454613 2.010512 -0.204112
v 3.454613 1.980675 -0.207247
v 3.454613 1.954693 -0.222249
v 3.454613 1.937059 -0.246519
v 3.454613 1.930821 -0.275866
v -0.993073 2.003722 -0.275866
v 3.454613 1.948081 -0.275866
v 3.454613 1.952811 -0.298114
v 3.454613 1.966179 -0.316514
v 3.454613 1.985877 -0.327886
v 3.454613 2.008497 -0.330264
v 3.454613 2.030129 -0.323235
v 3.454613 2.047031 -0.308017
v 3.454613 2.056282 -0.287238
v 3.454613 2.056282 -0.264494
v 3.454613 2.047031 -0.243716
v 3.454613 2.030129 -0.228495
v 3.454613 2.008497 -0.221466
v 3.454613 1.985877 -0.223844
v 3.454613 1.966179 -0.235217
v 3.454613 1.952811 -0.253618
v -0.957977 1.929481 -0.275866
v -0.957977 1.935831 -0.305763
v -0.957977 1.953798 -0.330491
v -0.957977 1.980272 -0.345774
v -0.957977 2.010670 -0.348968
v -0.957977 2.039737 -0.339523
v -0.957977 2.062453 -0.319071
v -0.957977 2.074885 -0.291148
v -0.957977 2.074885 -0.260583
v -0.957977 2.062453 -0.232660
v -0.957977 2.039737 -0.212207
v -0.957977 2.010670 -0.202762
v -0.957977 1.980272 -0.205957
v -0.957977 1.953798 -0.221240
v -0.957977 1.935831 -0.245968
v -0.993073 1.874826 0.333254
v -0.993073 1.909316 0.380718
v -0.993073 1.960123 0.410054
v -0.993073 2.018471 0.416186
v -0.993073 2.074272 0.398056
v -0.993073 2.117872 0.358798
v -0.993073 2.141735 0.305200
v -0.993073 2.141735 0.246530
v -0.993073 2.117872 0.192932
v -0.993073 2.074272 0.153674
v -0.993073 2.018471 0.135544
v -0.993073 1.960123 0.141676
v -0.993073 1.909316 0.171012
v -0.993073 1.874826 0.218478
v -0.993073 1.862630 0.275866
v 3.454613 1.937059 0.305211
v 3.454613 1.954693 0.329483
v 3.454613 1.980675 0.344483
v 3.454613 2.010512 0.347620
v 3.454613 2.039045 0.338349
v 3.454613 2.061340 0.318273
v 3.454613 2.073542 0.290866
v 3.454613 2.073542 0.260864
v 3.454613 2.061340 0.233457
v 3.454613 2.039045 0.213381
v 3.454613 2.010512 0.204111
v 3.454613 1.980675 0.207247
v 3.454613 1.954693 0.222248
v 3.454613 1.937059 0.246519
v 3.454613 1.930821 0.275866
v -0.993073 2.003722 0.275866
v 3.454613 1.948081 0.275866
v 3.454613 1.952811 0.298114
v 3.454613 1.966179 0.316514
v 3.454613 1.985877 0.327886
v 3.454613 2.008497 0.330264
v 3.454613 2.030129 0.323235
v 3.454613 2.047031 0.308016
v 3.454613 2.056282 0.287238
v 3.454613 2.056282 0.264493
v 3.454613 2.047031 0.243715
v 3.454613 2.030129 0.228495
v 3.454613 2.008497 0.221466
v 3.454613 1.985877 0.223844
v 3.454613 1.966179 0.235216
v 3.454613 1.952811 0.253618
v -0.957977 1.929481 0.275866
v -0.957977 1.935831 0.305763
v -0.957977 1.953798 0.330491
v -0.957977 1.980272 0.345774
v -0.957977 2.010670 0.348968
v -0.957977 2.039737 0.339523
v -0.957977 2.062453 0.319071
v -0.957977 2.074885 0.291147
v -0.957977 2.074885 0.260583
v -0.957977 2.062453 0.232659
v -0.957977 2.039737 0.212207
v -0.957977 2.010670 0.202762
v -0.957977 1.980272 0.205956
v -0.957977 1.953798 0.221239
v -0.957977 1.935831 0.245967
vn 0.0153 -0.9134 -0.4067
vn 0.0154 -0.6690 -0.7431
vn 0.0154 -0.6691 -0.7431
vn 0.0154 -0.3090 -0.9509
vn 0.0155 0.1045 -0.9944
vn 0.0156 0.5000 -0.8659
vn 0.0156 0.4999 -0.8659
vn 0.0156 0.8089 -0.5877
vn 0.0157 0.9780 -0.2079
vn 0.0157 0.9780 0.2079
vn 0.0156 0.8089 0.5877
vn 0.0156 0.5000 0.8659
vn 0.0156 0.4999 0.8659
vn 0.0155 0.1045 0.9944
vn 0.0154 -0.3090 0.9509
vn 0.0154 -0.6690 0.7431
vn 0.0154 -0.6691 0.7430
vn 0.0153 -0.9134 0.4067
vn 0.0153 -0.9999 -0.0000
vn -1.0000 -0.0000 -0.0000
vn 1.0000 -0.0000 -0.0000
vn -0.0041 0.9782 0.2078
vn -0.0041 0.8090 0.5878
vn -0.0041 0.5000 0.8660
vn -0.0042 0.1045 0.9945
vn -0.0042 -0.3090 0.9510
vn -0.0042 -0.6691 0.7431
vn -0.0042 -0.9135 0.4067
vn -0.0042 -1.0000 -0.0000
vn -0.0042 -0.9135 -0.4067
vn -0.0042 -0.6691 -0.7431
vn -0.0042 -0.3090 -0.9510
vn -0.0042 0.1045 -0.9945
vn -0.0041 0.5000 -0.8660
vn -0.0041 0.8090 -0.5878
vn -0.0041 0.9782 -0.2078
vn 0.0154 -0.6691 0.7431
vn 0.0154 -0.6691 -0.7430
vt 0.000000 -0.000000
vt 0.017975 -0.000000
vt 0.017975 0.405433
vt 0.000000 0.405433
vt 0.035948 -0.000000
vt 0.035948 0.405433
vt 0.053923 -0.000000
vt 0.053923 0.405433
vt 0.071897 -0.000000
vt 0.071897 0.405433
vt 0.089871 -0.000000
vt 0.089871 0.405433
vt 0.107845 -0.000000
vt 0.107845 0.405433
vt 0.125820 -0.000000
vt 0.125820 0.405433
vt 0.143793 -0.000000
vt 0.143793 0.405433
vt 0.161768 -0.000000
vt 0.161768 0.405433
vt 0.179742 -0.000000
vt 0.179742 0.405433
vt 0.197716 -0.000000
vt 0.197716 0.405433
vt 0.215690 -0.000000
vt 0.215690 0.405433
vt 0.233665 -0.000000
vt 0.233665 0.405433
vt 0.251638 -0.000000
vt 0.251638 0.405433
vt 0.269613 -0.000000
vt 0.269613 0.405433
vt 0.872559 0.132550
vt 0.872559 0.202618
vt 0.711695 0.162131
vt 0.844059 0.068537
vt 0.791986 0.021652
vt 0.725346 -0.000000
vt 0.655661 0.007324
vt 0.594979 0.042359
vt 0.553793 0.099046
vt 0.539225 0.167584
vt 0.553794 0.236123
vt 0.594979 0.292810
vt 0.655662 0.327846
vt 0.725348 0.335169
vt 0.791987 0.313516
vt 0.844059 0.266631
vt 0.304834 0.672063
vt 0.252761 0.718949
vt 0.186123 0.740602
vt 0.116436 0.733278
vt 0.055754 0.698243
vt 0.014569 0.641556
vt 0.000000 0.573017
vt 0.014568 0.504479
vt 0.055753 0.447792
vt 0.116435 0.412757
vt 0.186121 0.405433
vt 0.252761 0.427085
vt 0.304834 0.473970
vt 0.333333 0.537983
vt 0.333333 0.608051
vt 0.287587 0.405433
vt 0.287587 -0.000000
vt 0.305561 0.405433
vt 0.305561 -0.000000
vt 0.323535 0.405433
vt 0.323535 -0.000000
vt 0.341510 0.405433
vt 0.341510 -0.000000
vt 0.359483 0.405433
vt 0.359483 -0.000000
vt 0.377458 0.405433
vt 0.377458 -0.000000
vt 0.395432 0.405433
vt 0.395432 -0.000000
vt 0.413406 0.405433
vt 0.413406 -0.000000
vt 0.431380 0.405433
vt 0.431380 -0.000000
vt 0.449355 0.405433
vt 0.449355 -0.000000
vt 0.467328 0.405433
vt 0.467328 -0.000000
vt 0.485303 0.405433
vt 0.485303 -0.000000
vt 0.503277 0.405433
vt 0.503277 -0.000000
vt 0.521251 0.405433
vt 0.521251 -0.000000
vt 0.539225 0.405433
vt 0.539225 -0.000000
vt 1.000000 0.537983
vt 0.839136 0.567564
vt 1.000000 0.608051
vt 0.971500 0.473970
vt 0.919428 0.427085
vt 0.852787 0.405433
vt 0.783102 0.412757
vt 0.722420 0.447792
vt 0.681234 0.504479
vt 0.666667 0.573017
vt 0.681235 0.641556
vt 0.722421 0.698243
vt 0.783103 0.733278
vt 0.852789 0.740602
vt 0.919428 0.718949
vt 0.971500 0.672063
vt 0.638167 0.672063
vt 0.666667 0.608051
vt 0.666667 0.537983
vt 0.638167 0.473970
vt 0.586094 0.427085
vt 0.519454 0.405433
vt 0.449768 0.412757
vt 0.389086 0.447792
vt 0.347901 0.504479
vt 0.333333 0.573017
vt 0.347902 0.641556
vt 0.389087 0.698243
vt 0.449769 0.733278
vt 0.519456 0.740602
vt 0.586095 0.718949
s 1
usemtl æè´¨.001
f 1/1/1 2/2/2 17/3/3 16/4/1
f 2/2/2 3/5/4 18/6/4 17/3/3
f 3/5/4 4/7/5 19/8/5 18/6/4
f 4/7/5 5/9/6 20/10/7 19/8/5
f 5/9/6 6/11/8 21/12/8 20/10/7
f 6/11/8 7/13/9 22/14/9 21/12/8
f 7/13/9 8/15/10 23/16/10 22/14/9
f 8/15/10 9/17/11 24/18/11 23/16/10
f 9/17/11 10/19/12 25/20/13 24/18/11
f 10/19/12 11/21/14 26/22/14 25/20/13
f 11/21/14 12/23/15 27/24/15 26/22/14
f 12/23/15 13/25/16 28/26/17 27/24/15
f 13/25/16 14/27/18 29/28/18 28/26/17
f 14/27/18 15/29/19 30/30/19 29/28/18
f 15/29/19 1/31/1 16/32/1 30/30/19
f 2/33/20 1/34/20 31/35/20
f 3/36/20 2/33/20 31/35/20
f 4/37/20 3/36/20 31/35/20
f 5/38/20 4/37/20 31/35/20
f 6/39/20 5/38/20 31/35/20
f 7/40/20 6/39/20 31/35/20
f 8/41/20 7/40/20 31/35/20
f 9/42/20 8/41/20 31/35/20
f 10/43/20 9/42/20 31/35/20
f 11/44/20 10/43/20 31/35/20
f 12/45/20 11/44/20 31/35/20
f 13/46/20 12/45/20 31/35/20
f 14/47/20 13/46/20 31/35/20
f 15/48/20 14/47/20 31/35/20
f 1/34/20 15/48/20 31/35/20
s 0
f 47/49/21 48/50/21 49/51/21 50/52/21 51/53/21 52/54/21 53/55/21 54/56/21 55/57/21 56/58/21 57/59/21 58/60/21 59/61/21 60/62/21 61/63/21
f 30/49/21 16/50/21 33/50/21 32/49/21
f 16/50/21 17/51/21 34/51/21 33/50/21
f 17/51/21 18/52/21 35/52/21 34/51/21
f 18/52/21 19/53/21 36/53/21 35/52/21
f 19/53/21 20/54/21 37/54/21 36/53/21
f 20/54/21 21/55/21 38/55/21 37/54/21
f 21/55/21 22/56/21 39/56/21 38/55/21
f 22/56/21 23/57/21 40/57/21 39/56/21
f 23/57/21 24/58/21 41/58/21 40/57/21
f 24/58/21 25/59/21 42/59/21 41/58/21
f 25/59/21 26/60/21 43/60/21 42/59/21
f 26/60/21 27/61/21 44/61/21 43/60/21
f 27/61/21 28/62/21 45/62/21 44/61/21
f 28/62/21 29/63/21 46/63/21 45/62/21
f 29/63/21 30/49/21 32/49/21 46/63/21
f 32/49/22 33/50/22 48/50/22 47/49/22
f 33/50/23 34/51/23 49/51/23 48/50/23
f 34/51/24 35/52/24 50/52/24 49/51/24
f 35/52/25 36/53/25 51/53/25 50/52/25
f 36/53/26 37/54/26 52/54/26 51/53/26
f 37/54/27 38/55/27 53/55/27 52/54/27
f 38/55/28 39/56/28 54/56/28 53/55/28
f 39/56/29 40/57/29 55/57/29 54/56/29
f 40/57/30 41/58/30 56/58/30 55/57/30
f 41/58/31 42/59/31 57/59/31 56/58/31
f 42/59/32 43/60/32 58/60/32 57/59/32
f 43/60/33 44/61/33 59/61/33 58/60/33
f 44/61/34 45/62/34 60/62/34 59/61/34
f 45/62/35 46/63/35 61/63/35 60/62/35
f 46/63/36 32/49/36 47/49/36 61/63/36
s 1
f 62/31/18 77/32/18 78/64/37 63/65/16
f 63/65/16 78/64/37 79/66/15 64/67/15
f 64/67/15 79/66/15 80/68/14 65/69/14
f 65/69/14 80/68/14 81/70/13 66/71/12
f 66/71/12 81/70/13 82/72/11 67/73/11
f 67/73/11 82/72/11 83/74/10 68/75/10
f 68/75/10 83/74/10 84/76/9 69/77/9
f 69/77/9 84/76/9 85/78/8 70/79/8
f 70/79/8 85/78/8 86/80/7 71/81/6
f 71/81/6 86/80/7 87/82/5 72/83/5
f 72/83/5 87/82/5 88/84/4 73/85/4
f 73/85/4 88/84/4 89/86/38 74/87/2
f 74/87/2 89/86/38 90/88/1 75/89/1
f 75/89/1 90/88/1 91/90/19 76/91/19
f 76/91/19 91/90/19 77/92/18 62/93/18
f 63/94/20 92/95/20 62/96/20
f 64/97/20 92/95/20 63/94/20
f 65/98/20 92/95/20 64/97/20
f 66/99/20 92/95/20 65/98/20
f 67/100/20 92/95/20 66/99/20
f 68/101/20 92/95/20 67/100/20
f 69/102/20 92/95/20 68/101/20
f 70/103/20 92/95/20 69/102/20
f 71/104/20 92/95/20 70/103/20
f 72/105/20 92/95/20 71/104/20
f 73/106/20 92/95/20 72/105/20
f 74/107/20 92/95/20 73/106/20
f 75/108/20 92/95/20 74/107/20
f 76/109/20 92/95/20 75/108/20
f 62/96/20 92/95/20 76/109/20
s 0
f 108/110/21 122/111/21 121/112/21 120/113/21 119/114/21 118/115/21 117/116/21 116/117/21 115/118/21 114/119/21 113/120/21 112/121/21 111/122/21 110/123/21 109/124/21
f 91/110/21 93/110/21 94/124/21 77/124/21
f 77/124/21 94/124/21 95/123/21 78/123/21
f 78/123/21 95/123/21 96/122/21 79/122/21
f 79/122/21 96/122/21 97/121/21 80/121/21
f 80/121/21 97/121/21 98/120/21 81/120/21
f 81/120/21 98/120/21 99/119/21 82/119/21
f 82/119/21 99/119/21 100/118/21 83/118/21
f 83/118/21 100/118/21 101/117/21 84/117/21
f 84/117/21 101/117/21 102/116/21 85/116/21
f 85/116/21 102/116/21 103/115/21 86/115/21
f 86/115/21 103/115/21 104/114/21 87/114/21
f 87/114/21 104/114/21 105/113/21 88/113/21
f 88/113/21 105/113/21 106/112/21 89/112/21
f 89/112/21 106/112/21 107/111/21 90/111/21
f 90/111/21 107/111/21 93/110/21 91/110/21
f 93/110/36 108/110/36 109/124/36 94/124/36
f 94/124/35 109/124/35 110/123/35 95/123/35
f 95/123/34 110/123/34 111/122/34 96/122/34
f 96/122/33 111/122/33 112/121/33 97/121/33
f 97/121/32 112/121/32 113/120/32 98/120/32
f 98/120/31 113/120/31 114/119/31 99/119/31
f 99/119/30 114/119/30 115/118/30 100/118/30
f 100/118/29 115/118/29 116/117/29 101/117/29
f 101/117/28 116/117/28 117/116/28 102/116/28
f 102/116/27 117/116/27 118/115/27 103/115/27
f 103/115/26 118/115/26 119/114/26 104/114/26
f 104/114/25 119/114/25 120/113/25 105/113/25
f 105/113/24 120/113/24 121/112/24 106/112/24
f 106/112/23 121/112/23 122/111/23 107/111/23
f 107/111/22 122/111/22 108/110/22 93/110/22
