# Blender v2.93.5 OBJ File: ''
# www.blender.org
mtllib 100 2.mtl
o JP_127.001
v 0.333254 1.874826 -0.993073
v 0.380718 1.909316 -0.993073
v 0.329483 1.954694 3.454613
v 0.305212 1.937060 3.454613
v 0.410054 1.960123 -0.993073
v 0.344484 1.980676 3.454613
v 0.416186 2.018471 -0.993073
v 0.347620 2.010513 3.454612
v 0.398056 2.074272 -0.993073
v 0.338349 2.039046 3.454612
v 0.358798 2.117872 -0.993073
v 0.318273 2.061341 3.454612
v 0.305200 2.141735 -0.993073
v 0.290866 2.073543 3.454612
v 0.246530 2.141735 -0.993073
v 0.260864 2.073543 3.454612
v 0.192933 2.117872 -0.993073
v 0.233457 2.061341 3.454613
v 0.153675 2.074272 -0.993073
v 0.213382 2.039046 3.454613
v 0.135545 2.018471 -0.993073
v 0.204112 2.010513 3.454613
v 0.141677 1.960123 -0.993073
v 0.207247 1.980676 3.454613
v 0.171012 1.909316 -0.993073
v 0.222249 1.954694 3.454613
v 0.218478 1.874826 -0.993073
v 0.246519 1.937060 3.454613
v 0.275866 1.862630 -0.993073
v 0.275866 1.930822 3.454613
v 0.275866 2.003722 -0.993073
v 0.275866 1.929481 -0.957977
v 0.305763 1.935831 -0.957977
v 0.330491 1.953798 -0.957977
v 0.345774 1.980272 -0.957977
v 0.348968 2.010670 -0.957977
v 0.339523 2.039737 -0.957977
v 0.319071 2.062453 -0.957977
v 0.291148 2.074885 -0.957977
v 0.260583 2.074885 -0.957977
v 0.232660 2.062453 -0.957977
v 0.212207 2.039737 -0.957977
v 0.202762 2.010670 -0.957977
v 0.205957 1.980272 -0.957977
v 0.221240 1.953798 -0.957977
v 0.245968 1.935831 -0.957977
v 0.298114 1.952812 3.454613
v 0.275866 1.948082 3.454613
v 0.316514 1.966180 3.454613
v 0.327886 1.985878 3.454613
v 0.330264 2.008497 3.454613
v 0.323235 2.030129 3.454612
v 0.308017 2.047031 3.454612
v 0.287238 2.056283 3.454612
v 0.264494 2.056283 3.454612
v 0.243716 2.047031 3.454613
v 0.228495 2.030129 3.454613
v 0.221466 2.008497 3.454613
v 0.223844 1.985878 3.454613
v 0.235217 1.966180 3.454613
v 0.253618 1.952812 3.454613
v -0.333254 1.874826 -0.993073
v -0.305211 1.937060 3.454613
v -0.329483 1.954694 3.454613
v -0.380718 1.909316 -0.993073
v -0.344483 1.980676 3.454613
v -0.410054 1.960123 -0.993073
v -0.347620 2.010513 3.454613
v -0.416186 2.018471 -0.993073
v -0.338349 2.039046 3.454613
v -0.398056 2.074272 -0.993073
v -0.318273 2.061341 3.454613
v -0.358798 2.117872 -0.993073
v -0.290866 2.073543 3.454613
v -0.305200 2.141735 -0.993073
v -0.260864 2.073543 3.454613
v -0.246530 2.141735 -0.993073
v -0.233457 2.061341 3.454613
v -0.192932 2.117872 -0.993073
v -0.213381 2.039046 3.454613
v -0.153674 2.074272 -0.993073
v -0.204111 2.010513 3.454613
v -0.135544 2.018471 -0.993073
v -0.207247 1.980676 3.454613
v -0.141676 1.960123 -0.993073
v -0.222248 1.954694 3.454613
v -0.171012 1.909316 -0.993073
v -0.246519 1.937060 3.454613
v -0.218478 1.874826 -0.993073
v -0.275866 1.930822 3.454613
v -0.275866 1.862630 -0.993073
v -0.275866 2.003722 -0.993073
v -0.275866 1.929481 -0.957977
v -0.245967 1.935831 -0.957977
v -0.221239 1.953798 -0.957977
v -0.205956 1.980272 -0.957977
v -0.202762 2.010670 -0.957977
v -0.212207 2.039737 -0.957977
v -0.232659 2.062453 -0.957977
v -0.260583 2.074885 -0.957977
v -0.291147 2.074885 -0.957977
v -0.319071 2.062453 -0.957977
v -0.339523 2.039737 -0.957977
v -0.348968 2.010670 -0.957977
v -0.345774 1.980272 -0.957977
v -0.330491 1.953798 -0.957977
v -0.305763 1.935831 -0.957977
v -0.275866 1.948082 3.454613
v -0.298114 1.952812 3.454613
v -0.316514 1.966180 3.454613
v -0.327886 1.985878 3.454613
v -0.330264 2.008497 3.454613
v -0.323235 2.030129 3.454613
v -0.308016 2.047031 3.454613
v -0.287238 2.056283 3.454613
v -0.264493 2.056283 3.454613
v -0.243715 2.047031 3.454613
v -0.228495 2.030129 3.454613
v -0.221466 2.008497 3.454613
v -0.223844 1.985878 3.454613
v -0.235216 1.966180 3.454613
v -0.253618 1.952812 3.454613
vt 0.000000 -0.000000
vt 0.017975 -0.000000
vt 0.017975 0.405433
vt 0.000000 0.405433
vt 0.035948 -0.000000
vt 0.035948 0.405433
vt 0.053923 -0.000000
vt 0.053923 0.405433
vt 0.071897 -0.000000
vt 0.071897 0.405433
vt 0.089871 -0.000000
vt 0.089871 0.405433
vt 0.107845 -0.000000
vt 0.107845 0.405433
vt 0.125820 -0.000000
vt 0.125820 0.405433
vt 0.143793 -0.000000
vt 0.143793 0.405433
vt 0.161768 -0.000000
vt 0.161768 0.405433
vt 0.179742 -0.000000
vt 0.179742 0.405433
vt 0.197716 -0.000000
vt 0.197716 0.405433
vt 0.215690 -0.000000
vt 0.215690 0.405433
vt 0.233665 -0.000000
vt 0.233665 0.405433
vt 0.251638 -0.000000
vt 0.251638 0.405433
vt 0.269613 -0.000000
vt 0.269613 0.405433
vt 0.872559 0.132550
vt 0.872559 0.202618
vt 0.711695 0.162131
vt 0.844059 0.068537
vt 0.791986 0.021652
vt 0.725346 -0.000000
vt 0.655661 0.007324
vt 0.594979 0.042359
vt 0.553793 0.099046
vt 0.539225 0.167584
vt 0.553794 0.236123
vt 0.594979 0.292810
vt 0.655662 0.327846
vt 0.725348 0.335169
vt 0.791987 0.313516
vt 0.844059 0.266631
vt 0.304834 0.672063
vt 0.252761 0.718949
vt 0.186123 0.740602
vt 0.116436 0.733278
vt 0.055754 0.698243
vt 0.014569 0.641556
vt 0.000000 0.573017
vt 0.014568 0.504479
vt 0.055753 0.447792
vt 0.116435 0.412757
vt 0.186121 0.405433
vt 0.252761 0.427085
vt 0.304834 0.473970
vt 0.333333 0.537983
vt 0.333333 0.608051
vt 0.304834 0.672063
vt 0.252761 0.718949
vt 0.252761 0.718949
vt 0.304834 0.672063
vt 0.186123 0.740602
vt 0.186123 0.740602
vt 0.116436 0.733278
vt 0.116436 0.733278
vt 0.055754 0.698243
vt 0.055754 0.698243
vt 0.014569 0.641556
vt 0.014569 0.641556
vt 0.000000 0.573017
vt 0.000000 0.573017
vt 0.014568 0.504479
vt 0.014568 0.504479
vt 0.055753 0.447792
vt 0.055753 0.447792
vt 0.116435 0.412757
vt 0.116435 0.412757
vt 0.186121 0.405433
vt 0.186121 0.405433
vt 0.252761 0.427085
vt 0.252761 0.427085
vt 0.304834 0.473970
vt 0.304834 0.473970
vt 0.333333 0.537983
vt 0.333333 0.537983
vt 0.333333 0.608051
vt 0.333333 0.608051
vt 0.269613 -0.000000
vt 0.269613 0.405433
vt 0.287587 0.405433
vt 0.287587 -0.000000
vt 0.305561 0.405433
vt 0.305561 -0.000000
vt 0.323535 0.405433
vt 0.323535 -0.000000
vt 0.341510 0.405433
vt 0.341510 -0.000000
vt 0.359483 0.405433
vt 0.359483 -0.000000
vt 0.377458 0.405433
vt 0.377458 -0.000000
vt 0.395432 0.405433
vt 0.395432 -0.000000
vt 0.413406 0.405433
vt 0.413406 -0.000000
vt 0.431380 0.405433
vt 0.431380 -0.000000
vt 0.449355 0.405433
vt 0.449355 -0.000000
vt 0.467328 0.405433
vt 0.467328 -0.000000
vt 0.485303 0.405433
vt 0.485303 -0.000000
vt 0.503277 0.405433
vt 0.503277 -0.000000
vt 0.521251 0.405433
vt 0.521251 -0.000000
vt 0.539225 0.405433
vt 0.539225 -0.000000
vt 1.000000 0.537983
vt 0.839136 0.567564
vt 1.000000 0.608051
vt 0.971500 0.473970
vt 0.919428 0.427085
vt 0.852787 0.405433
vt 0.783102 0.412757
vt 0.722420 0.447792
vt 0.681234 0.504479
vt 0.666667 0.573017
vt 0.681235 0.641556
vt 0.722421 0.698243
vt 0.783103 0.733278
vt 0.852789 0.740602
vt 0.919428 0.718949
vt 0.971500 0.672063
vt 0.638167 0.672063
vt 0.666667 0.608051
vt 0.666667 0.537983
vt 0.638167 0.473970
vt 0.586094 0.427085
vt 0.519454 0.405433
vt 0.449768 0.412757
vt 0.389086 0.447792
vt 0.347901 0.504479
vt 0.333333 0.573017
vt 0.347902 0.641556
vt 0.389087 0.698243
vt 0.449769 0.733278
vt 0.519456 0.740602
vt 0.586095 0.718949
vt 0.638167 0.672063
vt 0.638167 0.672063
vt 0.586095 0.718949
vt 0.586095 0.718949
vt 0.519456 0.740602
vt 0.519456 0.740602
vt 0.449769 0.733278
vt 0.449769 0.733278
vt 0.389087 0.698243
vt 0.389087 0.698243
vt 0.347902 0.641556
vt 0.347902 0.641556
vt 0.333333 0.573017
vt 0.333333 0.573017
vt 0.347901 0.504479
vt 0.347901 0.504479
vt 0.389086 0.447792
vt 0.389086 0.447792
vt 0.449768 0.412757
vt 0.449768 0.412757
vt 0.519454 0.405433
vt 0.519454 0.405433
vt 0.586094 0.427085
vt 0.586094 0.427085
vt 0.638167 0.473970
vt 0.638167 0.473970
vt 0.666667 0.537983
vt 0.666667 0.537983
vt 0.666667 0.608051
vt 0.666667 0.608051
vn 0.4067 -0.9134 0.0153
vn 0.7431 -0.6690 0.0154
vn 0.7431 -0.6691 0.0154
vn 0.9509 -0.3090 0.0154
vn 0.9944 0.1045 0.0155
vn 0.8659 0.5000 0.0156
vn 0.8659 0.4999 0.0156
vn 0.5877 0.8089 0.0156
vn 0.2079 0.9780 0.0157
vn -0.2079 0.9780 0.0157
vn -0.5877 0.8089 0.0156
vn -0.8659 0.5000 0.0156
vn -0.8659 0.4999 0.0156
vn -0.9944 0.1045 0.0155
vn -0.9509 -0.3090 0.0154
vn -0.7431 -0.6690 0.0154
vn -0.7431 -0.6691 0.0154
vn -0.4067 -0.9134 0.0153
vn 0.0000 -0.9999 0.0153
vn 0.0000 0.0000 -1.0000
vn 0.0000 0.0000 1.0000
vn -0.2078 0.9782 -0.0041
vn -0.5878 0.8090 -0.0041
vn -0.8660 0.5000 -0.0041
vn -0.9945 0.1045 -0.0042
vn -0.9510 -0.3090 -0.0042
vn -0.7432 -0.6691 -0.0042
vn -0.4067 -0.9135 -0.0042
vn 0.0000 -1.0000 -0.0042
vn 0.4067 -0.9135 -0.0042
vn 0.7431 -0.6691 -0.0042
vn 0.9510 -0.3090 -0.0042
vn 0.9945 0.1045 -0.0042
vn 0.8660 0.5000 -0.0041
vn 0.5878 0.8090 -0.0041
vn 0.2078 0.9782 -0.0041
vn 0.7430 -0.6691 0.0154
vn -0.7431 -0.6691 -0.0042
usemtl æè´¨.003
s 1
f 1/1/1 2/2/2 3/3/3 4/4/1
f 2/2/2 5/5/4 6/6/4 3/3/3
f 5/5/4 7/7/5 8/8/5 6/6/4
f 7/7/5 9/9/6 10/10/7 8/8/5
f 9/9/6 11/11/8 12/12/8 10/10/7
f 11/11/8 13/13/9 14/14/9 12/12/8
f 13/13/9 15/15/10 16/16/10 14/14/9
f 15/15/10 17/17/11 18/18/11 16/16/10
f 17/17/11 19/19/12 20/20/13 18/18/11
f 19/19/12 21/21/14 22/22/14 20/20/13
f 21/21/14 23/23/15 24/24/15 22/22/14
f 23/23/15 25/25/16 26/26/17 24/24/15
f 25/25/16 27/27/18 28/28/18 26/26/17
f 27/27/18 29/29/19 30/30/19 28/28/18
f 29/29/19 1/31/1 4/32/1 30/30/19
f 2/33/20 1/34/20 31/35/20
f 5/36/20 2/33/20 31/35/20
f 7/37/20 5/36/20 31/35/20
f 9/38/20 7/37/20 31/35/20
f 11/39/20 9/38/20 31/35/20
f 13/40/20 11/39/20 31/35/20
f 15/41/20 13/40/20 31/35/20
f 17/42/20 15/41/20 31/35/20
f 19/43/20 17/42/20 31/35/20
f 21/44/20 19/43/20 31/35/20
f 23/45/20 21/44/20 31/35/20
f 25/46/20 23/45/20 31/35/20
f 27/47/20 25/46/20 31/35/20
f 29/48/20 27/47/20 31/35/20
f 1/34/20 29/48/20 31/35/20
f 32/49/21 33/50/21 34/51/21 35/52/21 36/53/21 37/54/21 38/55/21 39/56/21 40/57/21 41/58/21 42/59/21 43/60/21 44/61/21 45/62/21 46/63/21
f 30/64/21 4/65/21 47/66/21 48/67/21
f 4/65/21 3/68/21 49/69/21 47/66/21
f 3/68/21 6/70/21 50/71/21 49/69/21
f 6/70/21 8/72/21 51/73/21 50/71/21
f 8/72/21 10/74/21 52/75/21 51/73/21
f 10/74/21 12/76/21 53/77/21 52/75/21
f 12/76/21 14/78/21 54/79/21 53/77/21
f 14/78/21 16/80/21 55/81/21 54/79/21
f 16/80/21 18/82/21 56/83/21 55/81/21
f 18/82/21 20/84/21 57/85/21 56/83/21
f 20/84/21 22/86/21 58/87/21 57/85/21
f 22/86/21 24/88/21 59/89/21 58/87/21
f 24/88/21 26/90/21 60/91/21 59/89/21
f 26/90/21 28/92/21 61/93/21 60/91/21
f 28/92/21 30/64/21 48/67/21 61/93/21
f 48/67/22 47/66/22 33/50/22 32/49/22
f 47/66/23 49/69/23 34/51/23 33/50/23
f 49/69/24 50/71/24 35/52/24 34/51/24
f 50/71/25 51/73/25 36/53/25 35/52/25
f 51/73/26 52/75/26 37/54/26 36/53/26
f 52/75/27 53/77/27 38/55/27 37/54/27
f 53/77/28 54/79/28 39/56/28 38/55/28
f 54/79/29 55/81/29 40/57/29 39/56/29
f 55/81/30 56/83/30 41/58/30 40/57/30
f 56/83/31 57/85/31 42/59/31 41/58/31
f 57/85/32 58/87/32 43/60/32 42/59/32
f 58/87/33 59/89/33 44/61/33 43/60/33
f 59/89/34 60/91/34 45/62/34 44/61/34
f 60/91/35 61/93/35 46/63/35 45/62/35
f 61/93/36 48/67/36 32/49/36 46/63/36
f 62/94/18 63/95/18 64/96/17 65/97/16
f 65/97/16 64/96/17 66/98/15 67/99/15
f 67/99/15 66/98/15 68/100/14 69/101/14
f 69/101/14 68/100/14 70/102/13 71/103/12
f 71/103/12 70/102/13 72/104/11 73/105/11
f 73/105/11 72/104/11 74/106/10 75/107/10
f 75/107/10 74/106/10 76/108/9 77/109/9
f 77/109/9 76/108/9 78/110/8 79/111/8
f 79/111/8 78/110/8 80/112/7 81/113/6
f 81/113/6 80/112/7 82/114/5 83/115/5
f 83/115/5 82/114/5 84/116/4 85/117/4
f 85/117/4 84/116/4 86/118/37 87/119/2
f 87/119/2 86/118/37 88/120/1 89/121/1
f 89/121/1 88/120/1 90/122/19 91/123/19
f 91/123/19 90/122/19 63/124/18 62/125/18
f 65/126/20 92/127/20 62/128/20
f 67/129/20 92/127/20 65/126/20
f 69/130/20 92/127/20 67/129/20
f 71/131/20 92/127/20 69/130/20
f 73/132/20 92/127/20 71/131/20
f 75/133/20 92/127/20 73/132/20
f 77/134/20 92/127/20 75/133/20
f 79/135/20 92/127/20 77/134/20
f 81/136/20 92/127/20 79/135/20
f 83/137/20 92/127/20 81/136/20
f 85/138/20 92/127/20 83/137/20
f 87/139/20 92/127/20 85/138/20
f 89/140/20 92/127/20 87/139/20
f 91/141/20 92/127/20 89/140/20
f 62/128/20 92/127/20 91/141/20
f 93/142/21 94/143/21 95/144/21 96/145/21 97/146/21 98/147/21 99/148/21 100/149/21 101/150/21 102/151/21 103/152/21 104/153/21 105/154/21 106/155/21 107/156/21
f 90/157/21 108/158/21 109/159/21 63/160/21
f 63/160/21 109/159/21 110/161/21 64/162/21
f 64/162/21 110/161/21 111/163/21 66/164/21
f 66/164/21 111/163/21 112/165/21 68/166/21
f 68/166/21 112/165/21 113/167/21 70/168/21
f 70/168/21 113/167/21 114/169/21 72/170/21
f 72/170/21 114/169/21 115/171/21 74/172/21
f 74/172/21 115/171/21 116/173/21 76/174/21
f 76/174/21 116/173/21 117/175/21 78/176/21
f 78/176/21 117/175/21 118/177/21 80/178/21
f 80/178/21 118/177/21 119/179/21 82/180/21
f 82/180/21 119/179/21 120/181/21 84/182/21
f 84/182/21 120/181/21 121/183/21 86/184/21
f 86/184/21 121/183/21 122/185/21 88/186/21
f 88/186/21 122/185/21 108/158/21 90/157/21
f 108/158/36 93/142/36 107/156/36 109/159/36
f 109/159/35 107/156/35 106/155/35 110/161/35
f 110/161/34 106/155/34 105/154/34 111/163/34
f 111/163/33 105/154/33 104/153/33 112/165/33
f 112/165/32 104/153/32 103/152/32 113/167/32
f 113/167/31 103/152/31 102/151/31 114/169/31
f 114/169/30 102/151/30 101/150/30 115/171/30
f 115/171/29 101/150/29 100/149/29 116/173/29
f 116/173/28 100/149/28 99/148/28 117/175/28
f 117/175/38 99/148/38 98/147/38 118/177/38
f 118/177/26 98/147/26 97/146/26 119/179/26
f 119/179/25 97/146/25 96/145/25 120/181/25
f 120/181/24 96/145/24 95/144/24 121/183/24
f 121/183/23 95/144/23 94/143/23 122/185/23
f 122/185/22 94/143/22 93/142/22 108/158/22
