# Blender v2.93.5 OBJ File: 'torpedo.blend'
# www.blender.org
mtllib TorpedoFan1.mtl
o Cube.008_Cube.012
v -0.353505 -0.027798 0.003849
v -0.352910 -0.027798 0.003257
v -0.352910 -0.016527 0.003257
v -0.353505 -0.016527 0.003849
v -0.360760 -0.027798 -0.004632
v -0.360760 -0.016527 -0.004632
v -0.361355 -0.027798 -0.004040
v -0.361355 -0.016527 -0.004040
v -0.359821 -0.011876 -0.002498
v -0.359226 -0.011876 -0.003090
v -0.360211 -0.030772 -0.002890
v -0.354649 -0.030772 0.002699
v -0.355581 -0.032448 0.000573
v -0.358089 -0.032448 -0.001948
v -0.359616 -0.030772 -0.003482
v -0.354054 -0.030772 0.002107
v -0.358684 -0.032448 -0.001356
v -0.356176 -0.032448 0.001165
v -0.355039 -0.011876 0.002307
v -0.354444 -0.011876 0.001715
v -0.353562 0.003191 0.026374
v -0.352968 0.002597 0.026375
v -0.352940 0.002597 0.015104
v -0.353534 0.003191 0.015103
v -0.360838 -0.005273 0.026355
v -0.360809 -0.005273 0.015085
v -0.361432 -0.004679 0.026354
v -0.361403 -0.004679 0.015083
v -0.359853 -0.003141 0.010437
v -0.359260 -0.003734 0.010438
v -0.360292 -0.003532 0.029332
v -0.354717 0.002044 0.029346
v -0.355658 -0.000081 0.031019
v -0.358172 -0.002595 0.031012
v -0.359698 -0.004126 0.029333
v -0.354123 0.001450 0.029347
v -0.358766 -0.002001 0.031011
v -0.356251 0.000513 0.031017
v -0.355060 0.001652 0.010449
v -0.354466 0.001059 0.010450
v -0.353484 0.025715 -0.004614
v -0.352892 0.025715 -0.004019
v -0.352892 0.014444 -0.004019
v -0.353484 0.014444 -0.004614
v -0.360781 0.025715 0.003831
v -0.360781 0.014444 0.003831
v -0.361373 0.025715 0.003236
v -0.361373 0.014444 0.003236
v -0.359831 0.009794 0.001701
v -0.359239 0.009794 0.002296
v -0.360223 0.028690 0.002091
v -0.354634 0.028690 -0.003470
v -0.355576 0.030366 -0.001348
v -0.358097 0.030366 0.001160
v -0.359631 0.028690 0.002687
v -0.354042 0.028690 -0.002875
v -0.358689 0.030366 0.000565
v -0.356168 0.030366 -0.001943
v -0.355026 0.009794 -0.003080
v -0.354434 0.009794 -0.002485
v -0.353427 -0.005273 -0.027139
v -0.352834 -0.004679 -0.027137
v -0.352862 -0.004679 -0.015866
v -0.353456 -0.005273 -0.015868
v -0.360703 0.003191 -0.027157
v -0.360731 0.003191 -0.015886
v -0.361297 0.002597 -0.027159
v -0.361325 0.002597 -0.015888
v -0.359799 0.001059 -0.011234
v -0.359205 0.001652 -0.011232
v -0.360142 0.001450 -0.030131
v -0.354567 -0.004126 -0.030117
v -0.355500 -0.002001 -0.031794
v -0.358014 0.000513 -0.031801
v -0.359549 0.002043 -0.030129
v -0.353973 -0.003532 -0.030115
v -0.358608 -0.000081 -0.031802
v -0.356093 -0.002595 -0.031796
v -0.355006 -0.003734 -0.011222
v -0.354412 -0.003141 -0.011220
v -0.349413 -0.001041 0.014282
v -0.363004 -0.001041 0.010858
v -0.363000 -0.006673 0.009349
v -0.349408 -0.008368 0.012319
v -0.362990 -0.010796 0.005226
v -0.349395 -0.013732 0.006955
v -0.362975 -0.012305 -0.000406
v -0.349376 -0.015695 -0.000372
v -0.362961 -0.010796 -0.006038
v -0.349358 -0.013732 -0.007699
v -0.362951 -0.006673 -0.010161
v -0.349344 -0.008368 -0.013062
v -0.362947 -0.001041 -0.011670
v -0.349340 -0.001041 -0.015026
v -0.362951 0.004591 -0.010161
v -0.349344 0.006286 -0.013062
v -0.362961 0.008714 -0.006038
v -0.349358 0.011650 -0.007699
v -0.362975 0.010223 -0.000406
v -0.349376 0.013613 -0.000372
v -0.362990 0.008714 0.005226
v -0.349395 0.011650 0.006955
v -0.363000 0.004591 0.009349
v -0.349408 0.006286 0.012319
vt 0.784358 0.716207
vt 0.791443 0.716206
vt 0.791443 0.870358
vt 0.784358 0.870359
vt 0.814567 0.153728
vt 0.908515 0.153717
vt 0.908515 0.307869
vt 0.814567 0.307880
vt 0.917547 0.153718
vt 0.917547 0.307869
vt 0.664590 0.716196
vt 0.664590 0.870348
vt 0.065541 0.455863
vt 0.056244 0.459033
vt 0.056244 0.397082
vt 0.065541 0.393912
vt 0.682045 0.675523
vt 0.766903 0.675531
vt 0.846534 0.090127
vt 0.876548 0.090124
vt 0.894824 0.113044
vt 0.828257 0.113052
vt 0.011121 0.654074
vt 0.021382 0.653833
vt 0.031462 0.695238
vt 0.021201 0.695480
vt 0.676532 0.037209
vt 0.686718 0.038473
vt 0.690625 0.080911
vt 0.680439 0.079648
vt 0.019796 0.616452
vt 0.009534 0.616694
vt 0.021201 0.576744
vt 0.031462 0.576502
vt 0.705341 0.652603
vt 0.743607 0.652606
vt 0.680439 0.000000
vt 0.690625 0.001264
vt 0.281024 0.428872
vt 0.290841 0.429235
vt 0.312992 0.509122
vt 0.303175 0.508758
vt 0.303175 0.371018
vt 0.312992 0.371381
vt 0.890156 0.371482
vt 0.832925 0.371489
vt 0.760953 0.933967
vt 0.687994 0.933961
vt 0.828349 0.590457
vt 0.816866 0.590442
vt 0.816728 0.436477
vt 0.828211 0.436492
vt 0.312992 0.434466
vt 0.465130 0.434710
vt 0.465130 0.588661
vt 0.313001 0.588430
vt 0.055469 0.795453
vt 0.043986 0.795452
vt 0.043853 0.641487
vt 0.055335 0.641502
vt 0.662429 0.153809
vt 0.814567 0.154050
vt 0.814567 0.308015
vt 0.662439 0.307773
vt 0.044780 0.576502
vt 0.056244 0.576503
vt 0.684606 0.113203
vt 0.792388 0.113377
vt 0.364761 0.371018
vt 0.413360 0.371104
vt 0.442950 0.394034
vt 0.335168 0.393863
vt 0.056244 0.835000
vt 0.044761 0.834999
vt 0.829124 0.630000
vt 0.817642 0.629985
vt 0.579550 0.794650
vt 0.568103 0.794734
vt 0.568099 0.746284
vt 0.579537 0.746191
vt 0.581494 0.826086
vt 0.570047 0.826170
vt 0.714194 0.090368
vt 0.762804 0.090450
vt 0.570047 0.718719
vt 0.581494 0.718634
vt 0.594885 0.718634
vt 0.606323 0.718705
vt 0.606323 0.811087
vt 0.594895 0.811006
vt 0.817651 0.371489
vt 0.829124 0.371503
vt 0.435398 0.652145
vt 0.342732 0.651999
vt 0.784830 0.371489
vt 0.692175 0.371339
vt 0.798528 0.870350
vt 0.791443 0.870350
vt 0.791443 0.716199
vt 0.798528 0.716198
vt 0.465130 0.782254
vt 0.559066 0.782240
vt 0.559066 0.936392
vt 0.465130 0.936406
vt 0.568099 0.782241
vt 0.568099 0.936392
vt 0.918287 0.870359
vt 0.918287 0.716207
vt 0.290841 0.567339
vt 0.281024 0.566974
vt 0.303171 0.509122
vt 0.312988 0.509487
vt 0.900828 0.911046
vt 0.815984 0.911039
vt 0.497088 0.718638
vt 0.527107 0.718634
vt 0.545373 0.741554
vt 0.478823 0.741563
vt 0.662429 0.037208
vt 0.672628 0.038465
vt 0.676532 0.080916
vt 0.666346 0.079653
vt 0.292642 0.724793
vt 0.302904 0.724552
vt 0.312991 0.765965
vt 0.302730 0.766206
vt 0.302730 0.647462
vt 0.312992 0.647220
vt 0.301330 0.687170
vt 0.291068 0.687412
vt 0.666346 0.000000
vt 0.676532 0.001263
vt 0.877542 0.933967
vt 0.839273 0.933964
vt 0.312988 0.647220
vt 0.303172 0.646855
vt 0.056244 0.462203
vt 0.065541 0.459033
vt 0.065541 0.520978
vt 0.056244 0.524148
vt 0.540706 0.999992
vt 0.483491 1.000000
vt 0.821935 0.652603
vt 0.894877 0.652608
vt 0.280250 0.589983
vt 0.268777 0.589968
vt 0.268628 0.436004
vt 0.280111 0.436018
vt 0.312992 0.715585
vt 0.465120 0.715828
vt 0.465120 0.869792
vt 0.312992 0.869549
vt 0.043094 0.795455
vt 0.031611 0.795455
vt 0.031462 0.641490
vt 0.042945 0.641490
vt 0.664590 0.434923
vt 0.816728 0.435167
vt 0.816728 0.589132
vt 0.664601 0.588887
vt 0.032379 0.576502
vt 0.043853 0.576502
vt 0.686767 0.394320
vt 0.794549 0.394491
vt 0.364758 0.652145
vt 0.413356 0.652214
vt 0.442942 0.675154
vt 0.335160 0.674980
vt 0.043853 0.834999
vt 0.032389 0.834999
vt 0.281024 0.629529
vt 0.269542 0.629514
vt 0.592946 0.794655
vt 0.581498 0.794738
vt 0.581494 0.746289
vt 0.592931 0.746194
vt 0.594885 0.826086
vt 0.583457 0.826170
vt 0.716350 0.371489
vt 0.764959 0.371561
vt 0.583438 0.718718
vt 0.594885 0.718634
vt 0.653152 0.718634
vt 0.664590 0.718706
vt 0.664590 0.811079
vt 0.653152 0.811006
vt 0.269550 0.371018
vt 0.281024 0.371032
vt 0.435383 0.933266
vt 0.342728 0.933115
vt 0.786987 0.652603
vt 0.694332 0.652456
vt 0.465130 0.545050
vt 0.655347 0.545052
vt 0.657821 0.622083
vt 0.468350 0.645263
vt 0.664590 0.678479
vt 0.477157 0.718634
vt 0.465130 0.336656
vt 0.510773 0.178862
vt 0.583486 0.205643
vt 0.559727 0.371489
vt 0.662429 0.204863
vt 0.662429 0.370474
vt 0.079529 0.393912
vt 0.266956 0.434067
vt 0.260198 0.490451
vt 0.070725 0.467267
vt 0.257719 0.567477
vt 0.067515 0.567475
vt 0.260197 0.644507
vt 0.070725 0.667687
vt 0.266956 0.700902
vt 0.079529 0.741057
vt 0.465130 0.035455
vt 0.418440 0.192936
vt 0.345904 0.165684
vt 0.370763 0.000000
vt 0.266956 0.165950
vt 0.268057 0.000339
vt 0.031462 0.800898
vt 0.010877 0.749271
vt 0.031462 0.695480
vt 0.000000 0.540873
vt 0.000000 0.435456
vt 0.056244 0.576502
vt 0.056244 0.393912
vt 0.551043 0.000770
vt 0.629986 0.000000
vt 0.376999 0.370762
vt 0.298053 0.371018
vt 0.441204 0.343067
vt 0.465130 0.240401
vt 0.291068 0.752638
vt 0.270483 0.701012
vt 0.291068 0.647220
vt 0.468350 0.444843
vt 0.657821 0.468027
vt 0.477157 0.371489
vt 0.664590 0.411644
vt 0.097714 0.393912
vt 0.035769 0.351740
vt 0.169243 0.383316
vt 0.000000 0.268087
vt 0.231187 0.322780
vt 0.000011 0.165380
vt 0.266956 0.228533
vt 0.035769 0.071132
vt 0.266956 0.125825
vt 0.097722 0.010610
vt 0.231195 0.042187
vt 0.169243 0.000000
vn 0.7053 0.0000 0.7089
vn 0.7089 -0.0000 -0.7054
vn 0.7088 -0.0000 -0.7054
vn -0.7053 0.0000 -0.7089
vn -0.7088 -0.0000 0.7054
vn -0.6389 0.4236 -0.6421
vn -0.6192 -0.4788 -0.6223
vn 0.6192 -0.4788 0.6223
vn 0.0000 -1.0000 -0.0000
vn -0.4316 -0.7910 -0.4338
vn -0.7089 0.0000 0.7054
vn 0.4318 -0.7907 0.4340
vn -0.0000 1.0000 -0.0000
vn 0.6389 0.4236 0.6421
vn 0.7071 0.7071 0.0018
vn 0.7071 -0.7071 0.0018
vn 0.7071 -0.7071 0.0017
vn -0.7071 -0.7071 -0.0018
vn -0.7071 0.7071 -0.0018
vn -0.6394 -0.6405 -0.4253
vn 0.7071 -0.7071 0.0019
vn -0.6218 -0.6210 0.4772
vn 0.6198 0.6206 0.4804
vn -0.0026 -0.0000 1.0000
vn -0.4348 -0.4328 0.7897
vn -0.7071 0.7071 -0.0017
vn 0.4310 0.4326 0.7919
vn 0.0023 0.0002 -1.0000
vn 0.6415 0.6405 -0.4221
vn -0.7071 0.7071 -0.0019
vn 0.7089 0.0000 -0.7053
vn 0.7053 0.0005 0.7089
vn 0.7053 -0.0001 0.7089
vn 0.7054 0.0001 0.7088
vn 0.7053 0.0001 0.7089
vn -0.7089 0.0000 0.7053
vn -0.6421 -0.4238 0.6388
vn 0.7054 -0.0001 0.7089
vn 0.7054 -0.0000 0.7088
vn -0.6226 0.4788 0.6189
vn 0.6224 0.4787 -0.6192
vn -0.4342 0.7906 0.4317
vn -0.7053 0.0002 -0.7089
vn 0.4340 0.7907 -0.4318
vn 0.6421 -0.4237 -0.6389
vn -0.7053 0.0001 -0.7089
vn 0.7074 -0.7068 0.0018
vn 0.7071 0.7071 0.0017
vn -0.6415 0.6406 0.4221
vn 0.7071 0.7071 0.0019
vn -0.6194 0.6210 -0.4804
vn 0.6220 -0.6208 -0.4772
vn 0.0026 -0.0000 -1.0000
vn -0.4308 0.4328 -0.7919
vn -0.7071 -0.7071 -0.0017
vn 0.4352 -0.4322 -0.7898
vn -0.0025 -0.0000 1.0000
vn 0.6389 -0.6409 0.4254
vn -0.2364 -0.2516 0.9385
vn -0.2358 -0.6874 0.6869
vn -0.2347 -0.9391 0.2510
vn -0.2335 -0.9391 -0.2522
vn -0.2324 -0.6874 -0.6881
vn -0.2317 -0.2517 -0.9397
vn -0.2317 0.2517 -0.9397
vn -0.2324 0.6874 -0.6881
vn -0.2335 0.9391 -0.2522
vn -0.2347 0.9391 0.2510
vn -1.0000 0.0000 -0.0025
vn -1.0000 -0.0000 -0.0022
vn -1.0000 -0.0000 -0.0026
vn -1.0000 0.0000 -0.0024
vn -1.0000 0.0000 -0.0027
vn -0.2364 0.2516 0.9385
vn -0.2358 0.6874 0.6869
vn 1.0000 0.0000 0.0026
vn 1.0000 -0.0000 0.0024
vn 1.0000 0.0000 0.0025
usemtl æè´¨.002
s 1
f 1/1/1 2/2/1 3/3/1 4/4/1
f 2/5/2 5/6/2 6/7/3 3/8/3
f 5/6/4 7/9/4 8/10/4 6/7/4
f 7/11/5 1/1/5 4/4/5 8/12/5
f 9/13/6 10/14/6 6/15/6 8/16/6
f 11/17/5 12/18/5 1/1/5 7/11/5
f 13/19/2 14/20/2 15/21/3 16/22/3
f 15/23/7 11/24/7 7/25/7 5/26/7
f 12/27/8 16/28/8 2/29/8 1/30/8
f 16/22/3 15/21/3 5/6/2 2/5/2
f 17/31/9 14/32/9 13/33/9 18/34/9
f 14/32/10 17/31/10 11/24/10 15/23/10
f 17/35/11 18/36/11 12/18/5 11/17/5
f 18/37/12 13/38/12 16/28/12 12/27/12
f 19/39/13 20/40/13 10/41/13 9/42/13
f 20/40/14 19/39/14 4/43/14 3/44/14
f 10/45/3 20/46/3 3/8/3 6/7/3
f 19/47/5 9/48/5 8/12/5 4/4/5
f 21/49/15 22/50/15 23/51/15 24/52/15
f 22/53/16 25/54/16 26/55/17 23/56/17
f 25/57/18 27/58/18 28/59/18 26/60/18
f 27/61/19 21/62/19 24/63/19 28/64/19
f 29/65/20 30/66/20 26/60/20 28/59/20
f 31/67/19 32/68/19 21/62/19 27/61/19
f 33/69/21 34/70/21 35/71/16 36/72/16
f 35/73/22 31/74/22 27/58/22 25/57/22
f 32/75/23 36/76/23 22/50/23 21/49/23
f 36/72/16 35/71/16 25/54/16 22/53/16
f 37/77/24 34/78/24 33/79/24 38/80/24
f 34/78/25 37/77/25 31/81/25 35/82/25
f 37/83/26 38/84/26 32/68/19 31/67/19
f 38/80/27 33/79/27 36/85/27 32/86/27
f 39/87/28 40/88/28 30/89/28 29/90/28
f 40/91/29 39/92/29 24/52/29 23/51/29
f 30/93/17 40/94/17 23/56/17 26/55/17
f 39/95/30 29/96/30 28/64/19 24/63/19
f 41/97/31 42/98/32 43/99/33 44/100/31
f 42/101/32 45/102/34 46/103/35 43/104/33
f 45/102/34 47/105/36 48/106/36 46/103/35
f 47/107/4 41/97/4 44/100/4 48/108/4
f 49/109/37 50/110/35 46/111/35 48/112/37
f 51/113/4 52/114/4 41/97/4 47/107/4
f 53/115/38 54/116/34 55/117/1 56/118/39
f 55/119/1 51/120/40 47/121/40 45/122/34
f 52/123/41 56/124/39 42/125/32 41/126/41
f 56/118/39 55/117/1 45/102/34 42/101/32
f 57/127/13 54/128/34 53/129/38 58/130/13
f 54/131/34 57/132/42 51/120/42 55/119/1
f 57/133/43 58/134/43 52/114/4 51/113/4
f 58/130/44 53/129/38 56/124/39 52/123/44
f 59/135/9 60/136/1 50/110/35 49/109/9
f 60/137/1 59/138/45 44/139/45 43/140/33
f 50/141/35 60/142/1 43/104/33 46/103/35
f 59/143/46 49/144/46 48/108/4 44/100/4
f 61/145/47 62/146/47 63/147/47 64/148/47
f 62/149/48 65/150/48 66/151/15 63/152/15
f 65/153/19 67/154/19 68/155/19 66/156/19
f 67/157/18 61/158/18 64/159/18 68/160/18
f 69/161/49 70/162/49 66/156/49 68/155/49
f 71/163/18 72/164/18 61/158/18 67/157/18
f 73/165/50 74/166/50 75/167/48 76/168/48
f 75/169/51 71/170/51 67/154/51 65/153/51
f 72/171/52 76/172/52 62/146/52 61/145/52
f 76/168/48 75/167/48 65/150/48 62/149/48
f 77/173/53 74/174/53 73/175/53 78/176/53
f 74/174/54 77/173/54 71/177/54 75/178/54
f 77/179/55 78/180/55 72/164/18 71/163/18
f 78/176/56 73/175/56 76/181/56 72/182/56
f 79/183/57 80/184/57 70/185/57 69/186/57
f 80/187/58 79/188/58 64/148/58 63/147/58
f 70/189/50 80/190/50 63/152/15 66/151/15
f 79/191/18 69/192/18 68/160/18 64/159/18
f 81/193/59 82/194/59 83/195/59 84/196/59
f 84/196/60 83/195/60 85/197/60 86/198/60
f 86/199/61 85/200/61 87/201/61 88/202/61
f 88/202/62 87/201/62 89/203/62 90/204/62
f 90/205/63 89/206/63 91/207/63 92/208/63
f 92/208/64 91/207/64 93/209/64 94/210/64
f 94/210/65 93/209/65 95/211/65 96/212/65
f 96/212/66 95/211/66 97/213/66 98/214/66
f 98/215/67 97/216/67 99/217/67 100/218/67
f 100/218/68 99/217/68 101/219/68 102/220/68
f 83/221/69 82/222/70 103/223/69
f 83/224/69 103/225/69 85/226/71
f 103/225/69 101/227/71 85/226/71
f 101/228/71 87/201/71 85/200/71
f 101/228/71 99/229/71 87/201/71
f 99/217/71 89/230/69 87/231/71
f 99/217/71 97/216/69 89/230/69
f 97/216/69 91/232/72 89/230/69
f 97/216/69 95/233/72 91/232/72
f 95/234/72 93/235/73 91/236/72
f 104/237/74 103/238/74 82/194/74 81/193/74
f 102/239/75 101/240/75 103/238/75 104/237/75
f 81/241/76 84/242/77 104/243/77
f 84/242/77 86/244/78 104/243/77
f 86/244/78 102/245/78 104/243/77
f 86/244/78 88/246/78 102/245/78
f 88/246/78 100/247/78 102/245/78
f 88/246/78 90/248/78 100/247/78
f 90/248/78 98/249/78 100/247/78
f 90/248/78 92/250/76 98/249/78
f 92/250/76 96/251/76 98/249/78
f 92/250/76 94/252/78 96/251/76
