# Blender v2.93.5 OBJ File: ''
# www.blender.org
mtllib 127 2.mtl
o US_127.001
v -0.662025 2.996527 0.675268
v -0.620651 3.026588 0.675268
v -0.654468 3.056542 3.839577
v -0.680533 3.037604 3.839577
v -0.595081 3.070877 0.675268
v -0.638360 3.084444 3.839577
v -0.589734 3.121738 0.675268
v -0.634993 3.116484 3.839577
v -0.605538 3.170376 0.675268
v -0.644947 3.147127 3.839577
v -0.639759 3.208380 0.675268
v -0.666507 3.171070 3.839577
v -0.686477 3.229180 0.675268
v -0.695939 3.184175 3.839577
v -0.737620 3.229180 0.675268
v -0.728158 3.184175 3.839577
v -0.784337 3.208380 0.675268
v -0.757590 3.171070 3.839577
v -0.818559 3.170376 0.675268
v -0.779150 3.147127 3.839577
v -0.834363 3.121738 0.675268
v -0.789104 3.116484 3.839577
v -0.829016 3.070877 0.675268
v -0.785737 3.084444 3.839577
v -0.803446 3.026588 0.675268
v -0.769628 3.056542 3.839577
v -0.762072 2.996527 0.675268
v -0.743564 3.037604 3.839577
v -0.712047 2.985894 0.675268
v -0.712047 3.030904 3.839577
v -0.712047 3.005421 1.301306
v -0.670053 3.014345 1.301306
v -0.635323 3.039582 1.301306
v -0.613857 3.076761 1.301306
v -0.609369 3.119457 1.301306
v -0.622636 3.160288 1.301306
v -0.651363 3.192194 1.301306
v -0.690581 3.209656 1.301306
v -0.733513 3.209656 1.301309
v -0.772734 3.192194 1.301309
v -0.801461 3.160288 1.301309
v -0.814728 3.119457 1.301306
v -0.810240 3.076761 1.301306
v -0.788774 3.039582 1.301306
v -0.754044 3.014345 1.301306
v -0.685593 3.048829 3.839577
v -0.712047 3.043206 3.839577
v -0.663711 3.064726 3.839577
v -0.650188 3.088149 3.839577
v -0.647358 3.115050 3.839577
v -0.655717 3.140771 3.839577
v -0.673816 3.160872 3.839577
v -0.698524 3.171872 3.839577
v -0.725573 3.171872 3.839577
v -0.750281 3.160872 3.839577
v -0.768377 3.140771 3.839577
v -0.776735 3.115050 3.839577
v -0.773909 3.088149 3.839577
v -0.760386 3.064726 3.839577
v -0.738504 3.048829 3.839577
v 0.662025 2.996527 0.675267
v 0.680534 3.037604 3.839577
v 0.654469 3.056542 3.839577
v 0.620651 3.026588 0.675267
v 0.638361 3.084444 3.839577
v 0.595081 3.070877 0.675267
v 0.634993 3.116484 3.839577
v 0.589735 3.121738 0.675267
v 0.644947 3.147127 3.839577
v 0.605539 3.170376 0.675267
v 0.666507 3.171070 3.839577
v 0.639760 3.208380 0.675267
v 0.695939 3.184175 3.839577
v 0.686478 3.229180 0.675267
v 0.728158 3.184175 3.839577
v 0.737620 3.229180 0.675267
v 0.757591 3.171070 3.839577
v 0.784338 3.208380 0.675267
v 0.779151 3.147127 3.839577
v 0.818559 3.170376 0.675267
v 0.789104 3.116484 3.839577
v 0.834363 3.121738 0.675267
v 0.785737 3.084444 3.839577
v 0.829016 3.070877 0.675267
v 0.769629 3.056542 3.839577
v 0.803446 3.026588 0.675267
v 0.743564 3.037604 3.839577
v 0.762073 2.996527 0.675267
v 0.712048 3.030904 3.839577
v 0.712048 2.985894 0.675267
v 0.712048 3.005421 1.301306
v 0.754044 3.014345 1.301306
v 0.788774 3.039582 1.301306
v 0.810241 3.076761 1.301306
v 0.814728 3.119457 1.301306
v 0.801461 3.160288 1.301309
v 0.772735 3.192194 1.301309
v 0.733514 3.209656 1.301309
v 0.690581 3.209656 1.301306
v 0.651363 3.192194 1.301306
v 0.622636 3.160288 1.301306
v 0.609369 3.119457 1.301306
v 0.613857 3.076761 1.301306
v 0.635323 3.039582 1.301306
v 0.670054 3.014345 1.301306
v 0.712048 3.043206 3.839577
v 0.685593 3.048829 3.839577
v 0.663712 3.064726 3.839577
v 0.650189 3.088149 3.839577
v 0.647359 3.115050 3.839577
v 0.655717 3.140771 3.839577
v 0.673816 3.160872 3.839577
v 0.698525 3.171872 3.839577
v 0.725573 3.171872 3.839577
v 0.750282 3.160872 3.839577
v 0.768378 3.140771 3.839577
v 0.776736 3.115050 3.839577
v 0.773909 3.088149 3.839577
v 0.760386 3.064726 3.839577
v 0.738505 3.048829 3.839577
vt 0.356298 0.999987
vt 0.341534 0.999962
vt 0.350553 0.000000
vt 0.359854 0.000015
vt 0.172028 0.999965
vt 0.161215 0.999991
vt 0.153490 0.000017
vt 0.160302 0.000000
vt 0.146451 1.000000
vt 0.144189 0.000023
vt 0.130291 0.999991
vt 0.134008 0.000017
vt 0.115528 0.999965
vt 0.124706 0.000000
vt 0.057764 0.999911
vt 0.044690 0.999889
vt 0.038129 0.000000
vt 0.046366 0.000014
vt 0.028881 0.999889
vt 0.028170 0.000000
vt 0.013075 0.999911
vt 0.018212 0.000014
vt -0.000000 0.999950
vt 0.009974 0.000038
vt 0.228530 0.000035
vt 0.243293 0.000009
vt 0.247004 0.999982
vt 0.237703 0.999998
vt 0.259454 -0.000000
vt 0.257185 0.999976
vt 0.274218 0.000009
vt 0.266486 0.999982
vt 0.285032 0.000035
vt 0.273299 0.999998
vt 0.387223 0.999987
vt 0.372458 0.999995
vt 0.370035 0.000021
vt 0.379337 0.000015
vt 0.870880 0.015807
vt 0.877453 0.030570
vt 0.877453 0.046731
vt 0.870880 0.061495
vt 0.858871 0.072309
vt 0.843502 0.077303
vt 0.827429 0.075614
vt 0.813433 0.067534
vt 0.803934 0.054460
vt 0.800573 0.038652
vt 0.803932 0.022845
vt 0.813432 0.009770
vt 0.827427 0.001689
vt 0.843499 -0.000000
vt 0.858869 0.004993
vt 0.811368 0.211300
vt 0.803393 0.200325
vt 0.800573 0.187055
vt 0.803393 0.173785
vt 0.811366 0.162809
vt 0.823115 0.156025
vt 0.836608 0.154606
vt 0.849510 0.158797
vt 0.859593 0.167875
vt 0.865112 0.180269
vt 0.865112 0.193836
vt 0.859594 0.206230
vt 0.849513 0.215308
vt 0.836610 0.219501
vt 0.823118 0.218084
vt 0.849007 0.362537
vt 0.844866 0.371838
vt 0.841729 0.369536
vt 0.845205 0.361729
vt 0.837299 0.378650
vt 0.835377 0.375255
vt 0.827617 0.381796
vt 0.827248 0.377896
vt 0.817491 0.380731
vt 0.818747 0.377003
vt 0.808674 0.375641
vt 0.811346 0.372730
vt 0.802690 0.367404
vt 0.806322 0.365815
vt 0.800573 0.357445
vt 0.804545 0.357454
vt 0.802690 0.347486
vt 0.806323 0.349093
vt 0.808674 0.339250
vt 0.811347 0.342179
vt 0.817492 0.334159
vt 0.818749 0.337906
vt 0.827618 0.333096
vt 0.827248 0.337013
vt 0.837300 0.336242
vt 0.835378 0.339654
vt 0.844866 0.343054
vt 0.841729 0.345373
vt 0.849007 0.352355
vt 0.845205 0.353181
vt 0.738196 0.000022
vt 0.746742 0.000016
vt 0.749824 0.802157
vt 0.736257 0.802166
vt 0.754551 0.000000
vt 0.762218 0.802131
vt 0.569547 0.802085
vt 0.562632 0.802098
vt 0.567412 0.000021
vt 0.578387 0.000000
vt 0.554272 0.802103
vt 0.554142 0.000029
vt 0.545912 0.802098
vt 0.540871 0.000021
vt 0.538997 0.802085
vt 0.529895 0.000000
vt 0.490830 0.000009
vt 0.497744 0.000000
vt 0.492378 0.802076
vt 0.481403 0.802090
vt 0.506105 0.000000
vt 0.505649 0.802075
vt 0.514465 0.000009
vt 0.518919 0.802089
vt 0.521379 0.000025
vt 0.529895 0.802115
vt 0.635960 0.000019
vt 0.642874 0.000005
vt 0.637855 0.802082
vt 0.626879 0.802103
vt 0.651235 0.000000
vt 0.651125 0.802074
vt 0.659595 0.000005
vt 0.664395 0.802081
vt 0.666510 0.000018
vt 0.675371 0.802103
vt 0.730387 0.000016
vt 0.723863 0.802157
vt 0.341534 0.000035
vt 0.329801 0.999998
vt 0.322988 0.999982
vt 0.330720 0.000009
vt 0.313687 0.999976
vt 0.315957 0.000000
vt 0.303506 0.999982
vt 0.299796 0.000009
vt 0.294205 0.999998
vt 0.285032 0.000035
vt 0.057764 0.999950
vt 0.067738 0.000038
vt 0.075976 0.000014
vt 0.070838 0.999911
vt 0.085934 0.000000
vt 0.086645 0.999889
vt 0.095893 0.000000
vt 0.102454 0.999889
vt 0.104130 0.000014
vt 0.115527 0.999911
vt 0.172028 0.999964
vt 0.181208 0.000000
vt 0.190509 0.000017
vt 0.186792 0.999990
vt 0.200691 0.000022
vt 0.202953 1.000000
vt 0.209991 0.000017
vt 0.217717 0.999991
vt 0.216804 0.000000
vt 0.228530 0.999964
vt 0.387223 0.999962
vt 0.396241 0.000000
vt 0.405543 0.000015
vt 0.401987 0.999986
vt 0.415724 0.000021
vt 0.418148 0.999995
vt 0.425025 0.000015
vt 0.432911 0.999986
vt 0.850600 0.078993
vt 0.864595 0.087074
vt 0.874094 0.100149
vt 0.877452 0.115957
vt 0.874092 0.131764
vt 0.864592 0.144838
vt 0.850596 0.152918
vt 0.834524 0.154606
vt 0.819154 0.149611
vt 0.807145 0.138797
vt 0.800573 0.124033
vt 0.800573 0.107872
vt 0.807147 0.093109
vt 0.819157 0.082296
vt 0.834527 0.077303
vt 0.806093 0.271127
vt 0.800573 0.258733
vt 0.800573 0.245166
vt 0.806090 0.232772
vt 0.816171 0.223694
vt 0.829073 0.219501
vt 0.842566 0.220917
vt 0.854316 0.227700
vt 0.862291 0.238675
vt 0.865112 0.251945
vt 0.862292 0.265216
vt 0.854319 0.276192
vt 0.842570 0.282976
vt 0.829078 0.284395
vt 0.816175 0.280204
vt 0.832086 0.285457
vt 0.830885 0.289155
vt 0.822385 0.288262
vt 0.821960 0.284395
vt 0.814257 0.290904
vt 0.812277 0.287541
vt 0.807905 0.296623
vt 0.804713 0.294354
vt 0.804429 0.304432
vt 0.800573 0.303655
vt 0.804430 0.312978
vt 0.800573 0.313837
vt 0.807907 0.320787
vt 0.804715 0.323138
vt 0.814259 0.326505
vt 0.812281 0.329950
vt 0.822389 0.329145
vt 0.821964 0.333095
vt 0.830889 0.328252
vt 0.832089 0.332030
vt 0.838290 0.323977
vt 0.840907 0.326939
vt 0.843313 0.317063
vt 0.846890 0.318701
vt 0.845089 0.308702
vt 0.849006 0.308743
vt 0.843312 0.300342
vt 0.846889 0.298784
vt 0.838288 0.293427
vt 0.840904 0.290548
vt 0.776550 0.000022
vt 0.774612 0.802166
vt 0.762218 0.802157
vt 0.768743 0.000016
vt 0.618033 0.000018
vt 0.626879 0.802103
vt 0.615903 0.802081
vt 0.611118 0.000005
vt 0.602632 0.802073
vt 0.602758 0.000000
vt 0.589363 0.802081
vt 0.594397 0.000005
vt 0.578387 0.802103
vt 0.587483 0.000018
vt 0.472888 0.000025
vt 0.481403 0.802116
vt 0.470427 0.802090
vt 0.465973 0.000009
vt 0.457158 0.802076
vt 0.457613 0.000000
vt 0.443887 0.802075
vt 0.449252 0.000000
vt 0.432911 0.802089
vt 0.442338 0.000009
vt 0.684458 0.802084
vt 0.675371 0.000000
vt 0.686347 0.000021
vt 0.691373 0.802098
vt 0.699617 0.000028
vt 0.699732 0.802103
vt 0.712888 0.000021
vt 0.708093 0.802098
vt 0.723863 0.000000
vt 0.715008 0.802085
vt 0.792906 0.000000
vt 0.800573 0.802131
vt 0.788179 0.802157
vt 0.785097 0.000016
vn 0.4067 -0.9134 0.0142
vn 0.7431 -0.6690 0.0143
vn 0.7431 -0.6691 0.0143
vn 0.9510 -0.3090 0.0143
vn 0.9944 0.1045 0.0144
vn 0.8659 0.5000 0.0145
vn 0.8659 0.4999 0.0145
vn 0.5877 0.8089 0.0145
vn 0.2079 0.9780 0.0145
vn -0.2079 0.9780 0.0145
vn -0.5877 0.8089 0.0145
vn -0.8659 0.5000 0.0145
vn -0.8659 0.4999 0.0145
vn -0.9944 0.1045 0.0144
vn -0.9510 -0.3090 0.0143
vn -0.7431 -0.6690 0.0143
vn -0.7431 -0.6691 0.0143
vn -0.4067 -0.9134 0.0142
vn -0.4067 -0.9135 0.0142
vn 0.0000 -0.9999 0.0142
vn -0.0000 -0.0000 -1.0000
vn 0.0000 -0.0000 1.0000
vn -0.2079 0.9781 -0.0146
vn -0.5878 0.8089 -0.0146
vn -0.8659 0.5000 -0.0146
vn -0.9944 0.1046 -0.0147
vn -0.9509 -0.3090 -0.0148
vn -0.7431 -0.6690 -0.0148
vn -0.4067 -0.9134 -0.0149
vn -0.0000 -0.9999 -0.0149
vn 0.4067 -0.9135 -0.0149
vn 0.7431 -0.6690 -0.0148
vn 0.9509 -0.3090 -0.0148
vn 0.9944 0.1045 -0.0147
vn 0.8659 0.4999 -0.0146
vn 0.5878 0.8089 -0.0146
vn 0.2078 0.9781 -0.0146
vn 0.2079 0.9781 -0.0146
vn 0.8659 0.5000 -0.0146
vn 0.9944 0.1046 -0.0147
vn 0.4067 -0.9134 -0.0149
vn -0.4067 -0.9135 -0.0149
vn -0.9944 0.1045 -0.0147
vn -0.2078 0.9781 -0.0146
usemtl æè´¨.001
s 1
f 1/1/1 2/2/2 3/3/3 4/4/1
f 2/5/2 5/6/4 6/7/4 3/8/3
f 5/6/4 7/9/5 8/10/5 6/7/4
f 7/9/5 9/11/6 10/12/7 8/10/5
f 9/11/6 11/13/8 12/14/8 10/12/7
f 11/15/8 13/16/9 14/17/9 12/18/8
f 13/16/9 15/19/10 16/20/10 14/17/9
f 15/19/10 17/21/11 18/22/11 16/20/10
f 17/21/11 19/23/12 20/24/13 18/22/11
f 19/25/12 21/26/14 22/27/14 20/28/13
f 21/26/14 23/29/15 24/30/15 22/27/14
f 23/29/15 25/31/16 26/32/17 24/30/15
f 25/31/16 27/33/18 28/34/19 26/32/17
f 27/35/18 29/36/20 30/37/20 28/38/19
f 29/36/20 1/1/1 4/4/1 30/37/20
f 27/39/21 25/40/21 23/41/21 21/42/21 19/43/21 17/44/21 15/45/21 13/46/21 11/47/21 9/48/21 7/49/21 5/50/21 2/51/21 1/52/21 29/53/21
f 31/54/22 32/55/22 33/56/22 34/57/22 35/58/22 36/59/22 37/60/22 38/61/22 39/62/22 40/63/22 41/64/22 42/65/22 43/66/22 44/67/22 45/68/22
f 30/69/22 4/70/22 46/71/22 47/72/22
f 4/70/22 3/73/22 48/74/22 46/71/22
f 3/73/22 6/75/22 49/76/22 48/74/22
f 6/75/22 8/77/22 50/78/22 49/76/22
f 8/77/22 10/79/22 51/80/22 50/78/22
f 10/79/22 12/81/22 52/82/22 51/80/22
f 12/81/22 14/83/22 53/84/22 52/82/22
f 14/83/22 16/85/22 54/86/22 53/84/22
f 16/85/22 18/87/22 55/88/22 54/86/22
f 18/87/22 20/89/22 56/90/22 55/88/22
f 20/89/22 22/91/22 57/92/22 56/90/22
f 22/91/22 24/93/22 58/94/22 57/92/22
f 24/93/22 26/95/22 59/96/22 58/94/22
f 26/95/22 28/97/22 60/98/22 59/96/22
f 28/97/22 30/69/22 47/72/22 60/98/22
f 47/99/23 46/100/23 32/101/23 31/102/23
f 46/100/24 48/103/24 33/104/24 32/101/24
f 48/105/25 49/106/25 34/107/25 33/108/25
f 49/106/26 50/109/26 35/110/26 34/107/26
f 50/109/27 51/111/27 36/112/27 35/110/27
f 51/111/28 52/113/28 37/114/28 36/112/28
f 52/115/29 53/116/29 38/117/29 37/118/29
f 53/116/30 54/119/30 39/120/30 38/117/30
f 54/119/31 55/121/31 40/122/31 39/120/31
f 55/121/32 56/123/32 41/124/32 40/122/32
f 56/125/33 57/126/33 42/127/33 41/128/33
f 57/126/34 58/129/34 43/130/34 42/127/34
f 58/129/35 59/131/35 44/132/35 43/130/35
f 59/131/36 60/133/36 45/134/36 44/132/36
f 60/135/37 47/99/37 31/102/37 45/136/37
f 61/137/18 62/138/18 63/139/17 64/140/16
f 64/140/16 63/139/17 65/141/15 66/142/15
f 66/142/15 65/141/15 67/143/14 68/144/14
f 68/144/14 67/143/14 69/145/13 70/146/12
f 70/147/12 69/148/13 71/149/11 72/150/11
f 72/150/11 71/149/11 73/151/10 74/152/10
f 74/152/10 73/151/10 75/153/9 76/154/9
f 76/154/9 75/153/9 77/155/8 78/156/8
f 78/157/8 77/158/8 79/159/7 80/160/6
f 80/160/6 79/159/7 81/161/5 82/162/5
f 82/162/5 81/161/5 83/163/4 84/164/4
f 84/164/4 83/163/4 85/165/3 86/166/2
f 86/167/2 85/168/3 87/169/1 88/170/1
f 88/170/1 87/169/1 89/171/20 90/172/20
f 90/172/20 89/171/20 62/173/18 61/174/18
f 88/175/21 90/176/21 61/177/21 64/178/21 66/179/21 68/180/21 70/181/21 72/182/21 74/183/21 76/184/21 78/185/21 80/186/21 82/187/21 84/188/21 86/189/21
f 91/190/22 92/191/22 93/192/22 94/193/22 95/194/22 96/195/22 97/196/22 98/197/22 99/198/22 100/199/22 101/200/22 102/201/22 103/202/22 104/203/22 105/204/22
f 89/205/22 106/206/22 107/207/22 62/208/22
f 62/208/22 107/207/22 108/209/22 63/210/22
f 63/210/22 108/209/22 109/211/22 65/212/22
f 65/212/22 109/211/22 110/213/22 67/214/22
f 67/214/22 110/213/22 111/215/22 69/216/22
f 69/216/22 111/215/22 112/217/22 71/218/22
f 71/218/22 112/217/22 113/219/22 73/220/22
f 73/220/22 113/219/22 114/221/22 75/222/22
f 75/222/22 114/221/22 115/223/22 77/224/22
f 77/224/22 115/223/22 116/225/22 79/226/22
f 79/226/22 116/225/22 117/227/22 81/228/22
f 81/228/22 117/227/22 118/229/22 83/230/22
f 83/230/22 118/229/22 119/231/22 85/232/22
f 85/232/22 119/231/22 120/233/22 87/234/22
f 87/234/22 120/233/22 106/206/22 89/205/22
f 106/235/38 91/236/38 105/237/38 107/238/38
f 107/239/36 105/240/36 104/241/36 108/242/36
f 108/242/39 104/241/39 103/243/39 109/244/39
f 109/244/40 103/243/40 102/245/40 110/246/40
f 110/246/33 102/245/33 101/247/33 111/248/33
f 111/249/32 101/250/32 100/251/32 112/252/32
f 112/252/41 100/251/41 99/253/41 113/254/41
f 113/254/30 99/253/30 98/255/30 114/256/30
f 114/256/42 98/255/42 97/257/42 115/258/42
f 115/259/28 97/260/28 96/261/28 116/262/28
f 116/262/27 96/261/27 95/263/27 117/264/27
f 117/264/43 95/263/43 94/265/43 118/266/43
f 118/266/25 94/265/25 93/267/25 119/268/25
f 119/269/24 93/270/24 92/271/24 120/272/24
f 120/272/44 92/271/44 91/236/44 106/235/44
